<svg width="275" height="275" viewBox="0 0 275 275" fill="none" xmlns="http://www.w3.org/2000/svg">
<rect x="0.5" y="0.5" width="274" height="274" rx="137" fill="#FAFAFA"/>
<rect x="0.5" y="0.5" width="274" height="274" rx="137" stroke="#DEDCDC"/>
<path d="M121.845 135.98C120.661 135.98 119.397 135.804 118.053 135.452C116.709 135.068 115.605 134.524 114.741 133.82C114.325 133.468 113.989 133.02 113.733 132.476C113.509 131.9 113.397 131.356 113.397 130.844C113.397 130.3 113.621 129.788 114.069 129.308C114.549 128.828 115.221 128.588 116.085 128.588C116.661 128.588 117.381 128.892 118.245 129.5C118.757 129.82 119.317 130.108 119.925 130.364C120.533 130.62 121.157 130.748 121.797 130.748C123.333 130.748 124.661 130.476 125.781 129.932C126.901 129.356 127.765 128.572 128.373 127.58C128.981 126.588 129.285 125.42 129.285 124.076C129.285 122.86 128.997 121.82 128.421 120.956C127.877 120.092 127.141 119.42 126.213 118.94C125.317 118.46 124.341 118.22 123.285 118.22C122.293 118.22 121.429 118.38 120.693 118.7C119.957 119.02 119.285 119.356 118.677 119.708C118.069 120.028 117.461 120.188 116.853 120.188C115.797 120.188 115.013 119.964 114.501 119.516C113.989 119.036 113.669 118.476 113.541 117.836C113.413 117.196 113.381 116.62 113.445 116.108L114.933 104.444C115.061 103.772 115.381 103.228 115.893 102.812C116.437 102.364 117.077 102.14 117.813 102.14H131.685C132.453 102.14 133.093 102.396 133.605 102.908C134.117 103.42 134.373 104.06 134.373 104.828C134.373 105.564 134.117 106.188 133.605 106.7C133.093 107.18 132.453 107.42 131.685 107.42H119.301L119.829 106.988L118.533 116.732L117.909 114.908C118.101 114.588 118.517 114.284 119.157 113.996C119.797 113.708 120.533 113.468 121.365 113.276C122.197 113.052 123.013 112.94 123.813 112.94C125.957 112.94 127.877 113.436 129.573 114.428C131.269 115.388 132.597 116.716 133.557 118.412C134.549 120.076 135.045 121.964 135.045 124.076C135.045 126.476 134.501 128.572 133.413 130.364C132.325 132.156 130.789 133.548 128.805 134.54C126.853 135.5 124.533 135.98 121.845 135.98ZM141.581 122.252C140.813 122.252 140.173 121.996 139.661 121.484C139.149 120.972 138.893 120.332 138.893 119.564C138.893 118.796 139.149 118.172 139.661 117.692C140.173 117.212 140.813 116.972 141.581 116.972H161.117C161.885 116.972 162.525 117.228 163.037 117.74C163.549 118.22 163.805 118.844 163.805 119.612C163.805 120.38 163.549 121.02 163.037 121.532C162.525 122.012 161.885 122.252 161.117 122.252H141.581ZM151.277 131.612C150.381 131.612 149.629 131.324 149.021 130.748C148.445 130.172 148.157 129.436 148.157 128.54V109.82C148.157 108.924 148.461 108.188 149.069 107.612C149.677 107.036 150.429 106.748 151.325 106.748C152.253 106.748 152.989 107.036 153.533 107.612C154.109 108.188 154.397 108.924 154.397 109.82V128.54C154.397 129.436 154.109 130.172 153.533 130.748C152.957 131.324 152.205 131.612 151.277 131.612Z" fill="#FF623E"/>
<path d="M53.7584 164.44C54.0118 164.44 54.2384 164.54 54.4384 164.74C54.6518 164.927 54.7584 165.167 54.7584 165.46C54.7584 165.567 54.7384 165.673 54.6984 165.78C54.6718 165.873 54.6251 165.973 54.5584 166.08L49.9784 172.56L50.2984 171.38V177.48C50.2984 177.773 50.1984 178.02 49.9984 178.22C49.7984 178.407 49.5718 178.5 49.3184 178.5C49.0384 178.5 48.7984 178.407 48.5984 178.22C48.4118 178.02 48.3184 177.773 48.3184 177.48V171.54L48.4584 172.12L44.0384 166.22C43.9318 166.073 43.8584 165.94 43.8184 165.82C43.7784 165.687 43.7584 165.56 43.7584 165.44C43.7584 165.147 43.8718 164.907 44.0984 164.72C44.3384 164.533 44.5784 164.44 44.8184 164.44C45.1384 164.44 45.4118 164.593 45.6384 164.9L49.6384 170.38L49.1584 170.32L52.9184 164.92C53.1451 164.6 53.4251 164.44 53.7584 164.44ZM60.5578 178.7C59.4511 178.7 58.4911 178.473 57.6778 178.02C56.8645 177.553 56.2311 176.92 55.7778 176.12C55.3378 175.307 55.1178 174.38 55.1178 173.34C55.1178 172.167 55.3511 171.167 55.8178 170.34C56.2978 169.5 56.9178 168.86 57.6778 168.42C58.4378 167.967 59.2445 167.74 60.0978 167.74C60.7511 167.74 61.3711 167.873 61.9578 168.14C62.5445 168.393 63.0645 168.753 63.5178 169.22C63.9845 169.673 64.3511 170.213 64.6178 170.84C64.8845 171.453 65.0245 172.127 65.0378 172.86C65.0245 173.127 64.9178 173.347 64.7178 173.52C64.5178 173.693 64.2845 173.78 64.0178 173.78H56.2378L55.7578 172.08H63.2778L62.8978 172.44V171.94C62.8711 171.473 62.7178 171.067 62.4378 170.72C62.1578 170.36 61.8111 170.087 61.3978 169.9C60.9845 169.7 60.5511 169.6 60.0978 169.6C59.6978 169.6 59.3111 169.667 58.9378 169.8C58.5778 169.92 58.2511 170.12 57.9578 170.4C57.6778 170.68 57.4511 171.053 57.2778 171.52C57.1178 171.973 57.0378 172.54 57.0378 173.22C57.0378 173.953 57.1911 174.593 57.4978 175.14C57.8045 175.687 58.2178 176.113 58.7378 176.42C59.2578 176.713 59.8311 176.86 60.4578 176.86C60.9511 176.86 61.3578 176.813 61.6778 176.72C61.9978 176.613 62.2645 176.487 62.4778 176.34C62.6911 176.193 62.8778 176.053 63.0378 175.92C63.2378 175.8 63.4378 175.74 63.6378 175.74C63.8778 175.74 64.0778 175.827 64.2378 176C64.3978 176.16 64.4778 176.353 64.4778 176.58C64.4778 176.873 64.3311 177.14 64.0378 177.38C63.6778 177.727 63.1778 178.033 62.5378 178.3C61.9111 178.567 61.2511 178.7 60.5578 178.7ZM75.9966 167.82C76.2899 167.82 76.5299 167.92 76.7166 168.12C76.9032 168.307 76.9966 168.547 76.9966 168.84V177.48C76.9966 177.773 76.9032 178.02 76.7166 178.22C76.5299 178.407 76.2899 178.5 75.9966 178.5C75.7166 178.5 75.4766 178.407 75.2766 178.22C75.0899 178.02 74.9966 177.773 74.9966 177.48V176.04L75.4166 176.1C75.4166 176.34 75.3166 176.607 75.1166 176.9C74.9299 177.193 74.6699 177.48 74.3366 177.76C74.0032 178.027 73.6099 178.253 73.1566 178.44C72.7032 178.613 72.2166 178.7 71.6966 178.7C70.7766 178.7 69.9499 178.467 69.2166 178C68.4832 177.52 67.9032 176.867 67.4766 176.04C67.0499 175.213 66.8366 174.273 66.8366 173.22C66.8366 172.14 67.0499 171.193 67.4766 170.38C67.9032 169.553 68.4766 168.907 69.1966 168.44C69.9299 167.973 70.7432 167.74 71.6366 167.74C72.2099 167.74 72.7366 167.833 73.2166 168.02C73.7099 168.207 74.1366 168.447 74.4966 168.74C74.8566 169.033 75.1299 169.347 75.3166 169.68C75.5166 170 75.6166 170.307 75.6166 170.6L74.9966 170.66V168.84C74.9966 168.56 75.0899 168.32 75.2766 168.12C75.4766 167.92 75.7166 167.82 75.9966 167.82ZM71.9166 176.86C72.5432 176.86 73.0966 176.7 73.5766 176.38C74.0566 176.06 74.4299 175.627 74.6966 175.08C74.9632 174.52 75.0966 173.9 75.0966 173.22C75.0966 172.527 74.9632 171.907 74.6966 171.36C74.4299 170.813 74.0566 170.38 73.5766 170.06C73.0966 169.74 72.5432 169.58 71.9166 169.58C71.3032 169.58 70.7566 169.74 70.2766 170.06C69.8099 170.38 69.4366 170.813 69.1566 171.36C68.8899 171.907 68.7566 172.527 68.7566 173.22C68.7566 173.9 68.8899 174.52 69.1566 175.08C69.4366 175.627 69.8099 176.06 70.2766 176.38C70.7566 176.7 71.3032 176.86 71.9166 176.86ZM80.7984 178.5C80.5051 178.5 80.2651 178.407 80.0784 178.22C79.8918 178.02 79.7984 177.773 79.7984 177.48V169C79.7984 168.707 79.8918 168.467 80.0784 168.28C80.2651 168.08 80.5051 167.98 80.7984 167.98C81.0784 167.98 81.3118 168.08 81.4984 168.28C81.6984 168.467 81.7984 168.707 81.7984 169V171.24L81.5984 170.38C81.7051 170.007 81.8651 169.66 82.0784 169.34C82.3051 169.02 82.5718 168.74 82.8784 168.5C83.1851 168.26 83.5251 168.073 83.8984 167.94C84.2851 167.807 84.6851 167.74 85.0984 167.74C85.4451 167.74 85.7451 167.833 85.9984 168.02C86.2518 168.207 86.3784 168.44 86.3784 168.72C86.3784 169.08 86.2851 169.347 86.0984 169.52C85.9118 169.68 85.7051 169.76 85.4784 169.76C85.2784 169.76 85.0851 169.72 84.8984 169.64C84.7118 169.547 84.4918 169.5 84.2384 169.5C83.9584 169.5 83.6718 169.573 83.3784 169.72C83.0851 169.867 82.8184 170.087 82.5784 170.38C82.3384 170.66 82.1451 170.993 81.9984 171.38C81.8651 171.767 81.7984 172.2 81.7984 172.68V177.48C81.7984 177.773 81.6984 178.02 81.4984 178.22C81.3118 178.407 81.0784 178.5 80.7984 178.5ZM87.5378 176.86C87.4178 176.673 87.3645 176.46 87.3778 176.22C87.3911 175.967 87.5311 175.753 87.7978 175.58C87.9845 175.46 88.1778 175.413 88.3778 175.44C88.5911 175.453 88.7911 175.553 88.9778 175.74C89.3511 176.153 89.7645 176.48 90.2178 176.72C90.6845 176.96 91.2445 177.08 91.8978 177.08C92.1645 177.067 92.4378 177.027 92.7178 176.96C92.9978 176.88 93.2378 176.747 93.4378 176.56C93.6378 176.36 93.7378 176.073 93.7378 175.7C93.7378 175.367 93.6311 175.1 93.4178 174.9C93.2045 174.7 92.9245 174.54 92.5778 174.42C92.2311 174.287 91.8578 174.167 91.4578 174.06C91.0311 173.94 90.5978 173.807 90.1578 173.66C89.7311 173.513 89.3445 173.327 88.9978 173.1C88.6511 172.86 88.3645 172.553 88.1378 172.18C87.9245 171.807 87.8178 171.347 87.8178 170.8C87.8178 170.173 87.9911 169.633 88.3378 169.18C88.6978 168.727 89.1578 168.373 89.7178 168.12C90.2911 167.867 90.9111 167.74 91.5778 167.74C91.9645 167.74 92.3711 167.793 92.7978 167.9C93.2245 167.993 93.6378 168.147 94.0378 168.36C94.4378 168.573 94.7845 168.853 95.0778 169.2C95.2111 169.373 95.2845 169.58 95.2978 169.82C95.3245 170.06 95.2178 170.273 94.9778 170.46C94.8178 170.593 94.6245 170.653 94.3978 170.64C94.1711 170.627 93.9845 170.553 93.8378 170.42C93.5845 170.1 93.2578 169.853 92.8578 169.68C92.4578 169.493 92.0045 169.4 91.4978 169.4C91.2445 169.4 90.9778 169.44 90.6978 169.52C90.4311 169.587 90.2045 169.713 90.0178 169.9C89.8311 170.087 89.7378 170.36 89.7378 170.72C89.7378 171.053 89.8445 171.32 90.0578 171.52C90.2845 171.72 90.5778 171.887 90.9378 172.02C91.2978 172.153 91.6911 172.273 92.1178 172.38C92.5311 172.487 92.9378 172.613 93.3378 172.76C93.7511 172.907 94.1178 173.1 94.4378 173.34C94.7711 173.567 95.0378 173.867 95.2378 174.24C95.4511 174.6 95.5578 175.06 95.5578 175.62C95.5578 176.273 95.3645 176.833 94.9778 177.3C94.6045 177.753 94.1245 178.1 93.5378 178.34C92.9645 178.58 92.3578 178.7 91.7178 178.7C90.9578 178.7 90.1978 178.567 89.4378 178.3C88.6911 178.02 88.0578 177.54 87.5378 176.86ZM113.355 173.24C113.355 174.307 113.122 175.253 112.655 176.08C112.188 176.893 111.555 177.533 110.755 178C109.955 178.467 109.055 178.7 108.055 178.7C107.055 178.7 106.155 178.467 105.355 178C104.555 177.533 103.915 176.893 103.435 176.08C102.968 175.253 102.735 174.307 102.735 173.24C102.735 172.16 102.968 171.213 103.435 170.4C103.915 169.573 104.555 168.927 105.355 168.46C106.155 167.98 107.055 167.74 108.055 167.74C109.055 167.74 109.955 167.98 110.755 168.46C111.555 168.927 112.188 169.573 112.655 170.4C113.122 171.213 113.355 172.16 113.355 173.24ZM111.355 173.24C111.355 172.507 111.208 171.873 110.915 171.34C110.622 170.793 110.222 170.367 109.715 170.06C109.222 169.74 108.668 169.58 108.055 169.58C107.442 169.58 106.882 169.74 106.375 170.06C105.868 170.367 105.468 170.793 105.175 171.34C104.882 171.873 104.735 172.507 104.735 173.24C104.735 173.947 104.882 174.573 105.175 175.12C105.468 175.667 105.868 176.093 106.375 176.4C106.882 176.707 107.442 176.86 108.055 176.86C108.668 176.86 109.222 176.707 109.715 176.4C110.222 176.093 110.622 175.667 110.915 175.12C111.208 174.573 111.355 173.947 111.355 173.24ZM120.519 163.72C120.772 163.72 121.032 163.753 121.299 163.82C121.565 163.887 121.785 164 121.959 164.16C122.145 164.307 122.239 164.513 122.239 164.78C122.239 165.047 122.159 165.267 121.999 165.44C121.839 165.6 121.652 165.68 121.439 165.68C121.305 165.68 121.125 165.653 120.899 165.6C120.672 165.533 120.445 165.5 120.219 165.5C119.912 165.5 119.665 165.573 119.479 165.72C119.292 165.853 119.159 166.027 119.079 166.24C118.999 166.44 118.959 166.64 118.959 166.84V177.48C118.959 177.773 118.859 178.02 118.659 178.22C118.472 178.407 118.239 178.5 117.959 178.5C117.665 178.5 117.425 178.407 117.239 178.22C117.052 178.02 116.959 177.773 116.959 177.48V166.86C116.959 165.94 117.259 165.187 117.859 164.6C118.472 164.013 119.359 163.72 120.519 163.72ZM120.919 168.16C121.185 168.16 121.405 168.247 121.579 168.42C121.752 168.593 121.839 168.813 121.839 169.08C121.839 169.347 121.752 169.567 121.579 169.74C121.405 169.913 121.185 170 120.919 170H115.739C115.485 170 115.265 169.913 115.079 169.74C114.905 169.567 114.819 169.347 114.819 169.08C114.819 168.813 114.905 168.593 115.079 168.42C115.265 168.247 115.485 168.16 115.739 168.16H120.919ZM130.648 164.5H137.568C137.848 164.5 138.081 164.593 138.268 164.78C138.468 164.967 138.568 165.2 138.568 165.48C138.568 165.76 138.468 165.987 138.268 166.16C138.081 166.333 137.848 166.42 137.568 166.42H131.528L131.728 166.08V170.56L131.548 170.36H136.668C136.948 170.36 137.181 170.453 137.368 170.64C137.568 170.827 137.668 171.067 137.668 171.36C137.668 171.64 137.568 171.867 137.368 172.04C137.181 172.213 136.948 172.3 136.668 172.3H131.588L131.728 172.12V176.74L131.588 176.58H137.568C137.848 176.58 138.081 176.68 138.268 176.88C138.468 177.067 138.568 177.287 138.568 177.54C138.568 177.82 138.468 178.053 138.268 178.24C138.081 178.413 137.848 178.5 137.568 178.5H130.648C130.368 178.5 130.128 178.407 129.928 178.22C129.728 178.02 129.628 177.773 129.628 177.48V165.52C129.628 165.227 129.728 164.987 129.928 164.8C130.128 164.6 130.368 164.5 130.648 164.5ZM140.874 167.92C141.207 167.92 141.48 168.06 141.694 168.34L148.514 176.94C148.66 177.113 148.734 177.313 148.734 177.54C148.734 177.807 148.627 178.04 148.414 178.24C148.2 178.44 147.967 178.54 147.714 178.54C147.394 178.54 147.12 178.4 146.894 178.12L140.074 169.52C139.927 169.347 139.854 169.147 139.854 168.92C139.854 168.64 139.954 168.407 140.154 168.22C140.367 168.02 140.607 167.92 140.874 167.92ZM140.894 178.54C140.667 178.54 140.447 178.453 140.234 178.28C140.02 178.107 139.914 177.893 139.914 177.64C139.914 177.413 139.994 177.207 140.154 177.02L143.334 173.08L144.354 174.72L141.694 178.12C141.48 178.4 141.214 178.54 140.894 178.54ZM147.694 167.92C147.974 167.92 148.2 168.013 148.374 168.2C148.56 168.373 148.654 168.58 148.654 168.82C148.654 168.927 148.634 169.04 148.594 169.16C148.567 169.267 148.507 169.367 148.414 169.46L145.274 173.4L144.234 171.92L146.894 168.38C147.12 168.073 147.387 167.92 147.694 167.92ZM155.86 167.8C156.793 167.8 157.62 168.033 158.34 168.5C159.073 168.967 159.653 169.607 160.08 170.42C160.507 171.22 160.72 172.153 160.72 173.22C160.72 174.287 160.507 175.233 160.08 176.06C159.653 176.873 159.08 177.513 158.36 177.98C157.64 178.447 156.827 178.68 155.92 178.68C155.413 178.68 154.933 178.6 154.48 178.44C154.027 178.28 153.627 178.073 153.28 177.82C152.933 177.553 152.647 177.273 152.42 176.98C152.207 176.687 152.073 176.413 152.02 176.16L152.56 175.9V181.48C152.56 181.773 152.46 182.013 152.26 182.2C152.073 182.4 151.84 182.5 151.56 182.5C151.267 182.5 151.027 182.4 150.84 182.2C150.653 182.013 150.56 181.773 150.56 181.48V168.96C150.56 168.68 150.653 168.44 150.84 168.24C151.027 168.04 151.267 167.94 151.56 167.94C151.84 167.94 152.073 168.04 152.26 168.24C152.46 168.44 152.56 168.68 152.56 168.96V170.34L152.24 170.16C152.28 169.907 152.407 169.647 152.62 169.38C152.833 169.1 153.1 168.84 153.42 168.6C153.753 168.36 154.127 168.167 154.54 168.02C154.967 167.873 155.407 167.8 155.86 167.8ZM155.64 169.64C155 169.64 154.44 169.8 153.96 170.12C153.493 170.427 153.127 170.847 152.86 171.38C152.593 171.913 152.46 172.527 152.46 173.22C152.46 173.9 152.593 174.52 152.86 175.08C153.127 175.627 153.493 176.06 153.96 176.38C154.44 176.687 155 176.84 155.64 176.84C156.267 176.84 156.813 176.687 157.28 176.38C157.747 176.06 158.113 175.627 158.38 175.08C158.66 174.52 158.8 173.9 158.8 173.22C158.8 172.54 158.66 171.933 158.38 171.4C158.113 170.853 157.747 170.427 157.28 170.12C156.813 169.8 156.267 169.64 155.64 169.64ZM167.882 178.7C166.775 178.7 165.815 178.473 165.002 178.02C164.189 177.553 163.555 176.92 163.102 176.12C162.662 175.307 162.442 174.38 162.442 173.34C162.442 172.167 162.675 171.167 163.142 170.34C163.622 169.5 164.242 168.86 165.002 168.42C165.762 167.967 166.569 167.74 167.422 167.74C168.075 167.74 168.695 167.873 169.282 168.14C169.869 168.393 170.389 168.753 170.842 169.22C171.309 169.673 171.675 170.213 171.942 170.84C172.209 171.453 172.349 172.127 172.362 172.86C172.349 173.127 172.242 173.347 172.042 173.52C171.842 173.693 171.609 173.78 171.342 173.78H163.562L163.082 172.08H170.602L170.222 172.44V171.94C170.195 171.473 170.042 171.067 169.762 170.72C169.482 170.36 169.135 170.087 168.722 169.9C168.309 169.7 167.875 169.6 167.422 169.6C167.022 169.6 166.635 169.667 166.262 169.8C165.902 169.92 165.575 170.12 165.282 170.4C165.002 170.68 164.775 171.053 164.602 171.52C164.442 171.973 164.362 172.54 164.362 173.22C164.362 173.953 164.515 174.593 164.822 175.14C165.129 175.687 165.542 176.113 166.062 176.42C166.582 176.713 167.155 176.86 167.782 176.86C168.275 176.86 168.682 176.813 169.002 176.72C169.322 176.613 169.589 176.487 169.802 176.34C170.015 176.193 170.202 176.053 170.362 175.92C170.562 175.8 170.762 175.74 170.962 175.74C171.202 175.74 171.402 175.827 171.562 176C171.722 176.16 171.802 176.353 171.802 176.58C171.802 176.873 171.655 177.14 171.362 177.38C171.002 177.727 170.502 178.033 169.862 178.3C169.235 178.567 168.575 178.7 167.882 178.7ZM175.623 178.5C175.329 178.5 175.089 178.407 174.903 178.22C174.716 178.02 174.623 177.773 174.623 177.48V169C174.623 168.707 174.716 168.467 174.903 168.28C175.089 168.08 175.329 167.98 175.623 167.98C175.903 167.98 176.136 168.08 176.323 168.28C176.523 168.467 176.623 168.707 176.623 169V171.24L176.423 170.38C176.529 170.007 176.689 169.66 176.903 169.34C177.129 169.02 177.396 168.74 177.703 168.5C178.009 168.26 178.349 168.073 178.723 167.94C179.109 167.807 179.509 167.74 179.923 167.74C180.269 167.74 180.569 167.833 180.823 168.02C181.076 168.207 181.203 168.44 181.203 168.72C181.203 169.08 181.109 169.347 180.923 169.52C180.736 169.68 180.529 169.76 180.303 169.76C180.103 169.76 179.909 169.72 179.723 169.64C179.536 169.547 179.316 169.5 179.063 169.5C178.783 169.5 178.496 169.573 178.203 169.72C177.909 169.867 177.643 170.087 177.403 170.38C177.163 170.66 176.969 170.993 176.823 171.38C176.689 171.767 176.623 172.2 176.623 172.68V177.48C176.623 177.773 176.523 178.02 176.323 178.22C176.136 178.407 175.903 178.5 175.623 178.5ZM184.862 177.48C184.862 177.773 184.769 178.02 184.582 178.22C184.395 178.407 184.155 178.5 183.862 178.5C183.582 178.5 183.342 178.407 183.142 178.22C182.955 178.02 182.862 177.773 182.862 177.48V168.92C182.862 168.627 182.955 168.387 183.142 168.2C183.342 168 183.582 167.9 183.862 167.9C184.155 167.9 184.395 168 184.582 168.2C184.769 168.387 184.862 168.627 184.862 168.92V177.48ZM183.842 166.58C183.455 166.58 183.175 166.513 183.002 166.38C182.829 166.233 182.742 165.993 182.742 165.66V165.34C182.742 165.007 182.835 164.773 183.022 164.64C183.209 164.507 183.489 164.44 183.862 164.44C184.262 164.44 184.549 164.513 184.722 164.66C184.895 164.793 184.982 165.02 184.982 165.34V165.66C184.982 166.007 184.889 166.247 184.702 166.38C184.529 166.513 184.242 166.58 183.842 166.58ZM192.452 178.7C191.346 178.7 190.386 178.473 189.572 178.02C188.759 177.553 188.126 176.92 187.672 176.12C187.232 175.307 187.012 174.38 187.012 173.34C187.012 172.167 187.246 171.167 187.712 170.34C188.192 169.5 188.812 168.86 189.572 168.42C190.332 167.967 191.139 167.74 191.992 167.74C192.646 167.74 193.266 167.873 193.852 168.14C194.439 168.393 194.959 168.753 195.412 169.22C195.879 169.673 196.246 170.213 196.512 170.84C196.779 171.453 196.919 172.127 196.932 172.86C196.919 173.127 196.812 173.347 196.612 173.52C196.412 173.693 196.179 173.78 195.912 173.78H188.132L187.652 172.08H195.172L194.792 172.44V171.94C194.766 171.473 194.612 171.067 194.332 170.72C194.052 170.36 193.706 170.087 193.292 169.9C192.879 169.7 192.446 169.6 191.992 169.6C191.592 169.6 191.206 169.667 190.832 169.8C190.472 169.92 190.146 170.12 189.852 170.4C189.572 170.68 189.346 171.053 189.172 171.52C189.012 171.973 188.932 172.54 188.932 173.22C188.932 173.953 189.086 174.593 189.392 175.14C189.699 175.687 190.112 176.113 190.632 176.42C191.152 176.713 191.726 176.86 192.352 176.86C192.846 176.86 193.252 176.813 193.572 176.72C193.892 176.613 194.159 176.487 194.372 176.34C194.586 176.193 194.772 176.053 194.932 175.92C195.132 175.8 195.332 175.74 195.532 175.74C195.772 175.74 195.972 175.827 196.132 176C196.292 176.16 196.372 176.353 196.372 176.58C196.372 176.873 196.226 177.14 195.932 177.38C195.572 177.727 195.072 178.033 194.432 178.3C193.806 178.567 193.146 178.7 192.452 178.7ZM204.613 167.74C205.56 167.74 206.293 167.94 206.813 168.34C207.333 168.727 207.693 169.253 207.893 169.92C208.106 170.573 208.213 171.307 208.213 172.12V177.48C208.213 177.773 208.113 178.02 207.913 178.22C207.726 178.407 207.493 178.5 207.213 178.5C206.92 178.5 206.68 178.407 206.493 178.22C206.306 178.02 206.213 177.773 206.213 177.48V172.14C206.213 171.66 206.146 171.233 206.013 170.86C205.88 170.473 205.646 170.167 205.313 169.94C204.993 169.7 204.54 169.58 203.953 169.58C203.406 169.58 202.926 169.7 202.513 169.94C202.1 170.167 201.773 170.473 201.533 170.86C201.306 171.233 201.193 171.66 201.193 172.14V177.48C201.193 177.773 201.093 178.02 200.893 178.22C200.706 178.407 200.473 178.5 200.193 178.5C199.9 178.5 199.66 178.407 199.473 178.22C199.286 178.02 199.193 177.773 199.193 177.48V169C199.193 168.707 199.286 168.467 199.473 168.28C199.66 168.08 199.9 167.98 200.193 167.98C200.473 167.98 200.706 168.08 200.893 168.28C201.093 168.467 201.193 168.707 201.193 169V170.12L200.833 170.32C200.926 170.027 201.086 169.733 201.313 169.44C201.553 169.133 201.84 168.853 202.173 168.6C202.506 168.333 202.88 168.127 203.293 167.98C203.706 167.82 204.146 167.74 204.613 167.74ZM215.65 167.74C216.37 167.74 217.01 167.82 217.57 167.98C218.13 168.127 218.563 168.34 218.87 168.62C219.19 168.887 219.35 169.2 219.35 169.56C219.35 169.787 219.283 170 219.15 170.2C219.017 170.387 218.817 170.48 218.55 170.48C218.363 170.48 218.203 170.447 218.07 170.38C217.95 170.313 217.837 170.233 217.73 170.14C217.623 170.047 217.49 169.953 217.33 169.86C217.183 169.78 216.963 169.713 216.67 169.66C216.39 169.607 216.137 169.58 215.91 169.58C215.203 169.58 214.59 169.74 214.07 170.06C213.563 170.38 213.163 170.813 212.87 171.36C212.59 171.907 212.45 172.527 212.45 173.22C212.45 173.913 212.59 174.533 212.87 175.08C213.163 175.627 213.557 176.06 214.05 176.38C214.557 176.7 215.143 176.86 215.81 176.86C216.21 176.86 216.537 176.833 216.79 176.78C217.043 176.713 217.263 176.633 217.45 176.54C217.65 176.42 217.817 176.3 217.95 176.18C218.097 176.047 218.297 175.98 218.55 175.98C218.843 175.98 219.063 176.073 219.21 176.26C219.37 176.433 219.45 176.653 219.45 176.92C219.45 177.213 219.27 177.5 218.91 177.78C218.563 178.047 218.097 178.267 217.51 178.44C216.923 178.613 216.277 178.7 215.57 178.7C214.53 178.7 213.623 178.46 212.85 177.98C212.09 177.5 211.497 176.847 211.07 176.02C210.657 175.193 210.45 174.26 210.45 173.22C210.45 172.167 210.67 171.233 211.11 170.42C211.55 169.593 212.163 168.94 212.95 168.46C213.737 167.98 214.637 167.74 215.65 167.74ZM226.261 178.7C225.154 178.7 224.194 178.473 223.381 178.02C222.568 177.553 221.934 176.92 221.481 176.12C221.041 175.307 220.821 174.38 220.821 173.34C220.821 172.167 221.054 171.167 221.521 170.34C222.001 169.5 222.621 168.86 223.381 168.42C224.141 167.967 224.948 167.74 225.801 167.74C226.454 167.74 227.074 167.873 227.661 168.14C228.248 168.393 228.768 168.753 229.221 169.22C229.688 169.673 230.054 170.213 230.321 170.84C230.588 171.453 230.728 172.127 230.741 172.86C230.728 173.127 230.621 173.347 230.421 173.52C230.221 173.693 229.988 173.78 229.721 173.78H221.941L221.461 172.08H228.981L228.601 172.44V171.94C228.574 171.473 228.421 171.067 228.141 170.72C227.861 170.36 227.514 170.087 227.101 169.9C226.688 169.7 226.254 169.6 225.801 169.6C225.401 169.6 225.014 169.667 224.641 169.8C224.281 169.92 223.954 170.12 223.661 170.4C223.381 170.68 223.154 171.053 222.981 171.52C222.821 171.973 222.741 172.54 222.741 173.22C222.741 173.953 222.894 174.593 223.201 175.14C223.508 175.687 223.921 176.113 224.441 176.42C224.961 176.713 225.534 176.86 226.161 176.86C226.654 176.86 227.061 176.813 227.381 176.72C227.701 176.613 227.968 176.487 228.181 176.34C228.394 176.193 228.581 176.053 228.741 175.92C228.941 175.8 229.141 175.74 229.341 175.74C229.581 175.74 229.781 175.827 229.941 176C230.101 176.16 230.181 176.353 230.181 176.58C230.181 176.873 230.034 177.14 229.741 177.38C229.381 177.727 228.881 178.033 228.241 178.3C227.614 178.567 226.954 178.7 226.261 178.7Z" fill="#0A0D12"/>
</svg>
