<svg width="275" height="275" viewBox="0 0 275 275" fill="none" xmlns="http://www.w3.org/2000/svg">
<rect x="0.5" y="0.5" width="274" height="274" rx="137" fill="#FAFAFA"/>
<rect x="0.5" y="0.5" width="274" height="274" rx="137" stroke="#DEDCDC"/>
<path d="M91.9578 135.5C91.0618 135.5 90.3258 135.228 89.7498 134.684C89.1738 134.108 88.8858 133.404 88.8858 132.572V108.38L89.5578 109.436L86.0538 112.028C85.6058 112.38 85.0458 112.556 84.3738 112.556C83.6058 112.556 82.9338 112.268 82.3578 111.692C81.7818 111.116 81.4938 110.428 81.4938 109.628C81.4938 108.604 81.9898 107.772 82.9818 107.132L89.8938 102.524C90.2138 102.3 90.5658 102.14 90.9498 102.044C91.3658 101.948 91.7498 101.9 92.1018 101.9C93.0298 101.9 93.7658 102.188 94.3098 102.764C94.8538 103.308 95.1258 103.996 95.1258 104.828V132.572C95.1258 133.404 94.8218 134.108 94.2138 134.684C93.6378 135.228 92.8858 135.5 91.9578 135.5ZM112.966 135.98C110.214 135.98 107.878 135.26 105.958 133.82C104.07 132.348 102.63 130.316 101.638 127.724C100.646 125.1 100.15 122.092 100.15 118.7C100.15 115.276 100.646 112.268 101.638 109.676C102.63 107.084 104.07 105.068 105.958 103.628C107.878 102.156 110.214 101.42 112.966 101.42C115.718 101.42 118.038 102.156 119.926 103.628C121.846 105.068 123.302 107.084 124.294 109.676C125.286 112.268 125.782 115.276 125.782 118.7C125.782 122.092 125.286 125.1 124.294 127.724C123.302 130.316 121.846 132.348 119.926 133.82C118.038 135.26 115.718 135.98 112.966 135.98ZM112.966 130.22C114.31 130.22 115.462 129.804 116.422 128.972C117.414 128.108 118.182 126.828 118.726 125.132C119.27 123.404 119.542 121.26 119.542 118.7C119.542 116.108 119.27 113.964 118.726 112.268C118.182 110.572 117.414 109.308 116.422 108.476C115.462 107.612 114.31 107.18 112.966 107.18C111.654 107.18 110.502 107.612 109.51 108.476C108.518 109.308 107.75 110.572 107.206 112.268C106.662 113.964 106.39 116.108 106.39 118.7C106.39 121.26 106.662 123.404 107.206 125.132C107.75 126.828 108.518 128.108 109.51 128.972C110.502 129.804 111.654 130.22 112.966 130.22ZM141.49 135.98C138.738 135.98 136.402 135.26 134.482 133.82C132.594 132.348 131.154 130.316 130.162 127.724C129.17 125.1 128.674 122.092 128.674 118.7C128.674 115.276 129.17 112.268 130.162 109.676C131.154 107.084 132.594 105.068 134.482 103.628C136.402 102.156 138.738 101.42 141.49 101.42C144.242 101.42 146.562 102.156 148.45 103.628C150.37 105.068 151.826 107.084 152.818 109.676C153.81 112.268 154.306 115.276 154.306 118.7C154.306 122.092 153.81 125.1 152.818 127.724C151.826 130.316 150.37 132.348 148.45 133.82C146.562 135.26 144.242 135.98 141.49 135.98ZM141.49 130.22C142.834 130.22 143.986 129.804 144.946 128.972C145.938 128.108 146.706 126.828 147.25 125.132C147.794 123.404 148.066 121.26 148.066 118.7C148.066 116.108 147.794 113.964 147.25 112.268C146.706 110.572 145.938 109.308 144.946 108.476C143.986 107.612 142.834 107.18 141.49 107.18C140.178 107.18 139.026 107.612 138.034 108.476C137.042 109.308 136.274 110.572 135.73 112.268C135.186 113.964 134.914 116.108 134.914 118.7C134.914 121.26 135.186 123.404 135.73 125.132C136.274 126.828 137.042 128.108 138.034 128.972C139.026 129.804 140.178 130.22 141.49 130.22ZM164.591 120.14C163.055 120.14 161.695 119.724 160.511 118.892C159.327 118.06 158.399 116.94 157.727 115.532C157.055 114.124 156.719 112.556 156.719 110.828C156.719 109.068 157.055 107.484 157.727 106.076C158.399 104.668 159.327 103.548 160.511 102.716C161.695 101.884 163.055 101.468 164.591 101.468C166.159 101.468 167.519 101.884 168.671 102.716C169.855 103.548 170.767 104.668 171.407 106.076C172.079 107.484 172.415 109.068 172.415 110.828C172.415 112.556 172.063 114.124 171.359 115.532C170.655 116.94 169.711 118.06 168.527 118.892C167.375 119.724 166.063 120.14 164.591 120.14ZM164.591 115.868C165.551 115.868 166.287 115.388 166.799 114.428C167.343 113.468 167.615 112.268 167.615 110.828C167.615 109.388 167.359 108.188 166.847 107.228C166.335 106.268 165.583 105.788 164.591 105.788C163.631 105.788 162.879 106.268 162.335 107.228C161.791 108.188 161.519 109.388 161.519 110.828C161.519 112.268 161.775 113.468 162.287 114.428C162.831 115.388 163.599 115.868 164.591 115.868ZM185.183 135.98C183.711 135.98 182.383 135.564 181.199 134.732C180.015 133.9 179.071 132.78 178.367 131.372C177.663 129.964 177.311 128.396 177.311 126.668C177.311 124.908 177.647 123.324 178.319 121.916C178.991 120.508 179.919 119.388 181.103 118.556C182.287 117.724 183.647 117.308 185.183 117.308C186.751 117.308 188.111 117.724 189.263 118.556C190.447 119.388 191.359 120.508 191.999 121.916C192.671 123.324 193.007 124.908 193.007 126.668C193.007 128.396 192.655 129.964 191.951 131.372C191.247 132.78 190.303 133.9 189.119 134.732C187.967 135.564 186.655 135.98 185.183 135.98ZM185.183 131.708C186.143 131.708 186.879 131.228 187.391 130.268C187.935 129.308 188.207 128.108 188.207 126.668C188.207 125.228 187.951 124.028 187.439 123.068C186.927 122.108 186.175 121.628 185.183 121.628C184.223 121.628 183.471 122.108 182.927 123.068C182.383 124.028 182.111 125.228 182.111 126.668C182.111 128.108 182.367 129.308 182.879 130.268C183.423 131.228 184.191 131.708 185.183 131.708ZM165.167 135.596C164.655 135.596 164.111 135.388 163.535 134.972C162.959 134.524 162.671 133.948 162.671 133.244C162.671 132.828 162.831 132.348 163.151 131.804L182.255 102.956C182.831 102.188 183.487 101.804 184.223 101.804C184.767 101.804 185.311 102.012 185.855 102.428C186.431 102.844 186.719 103.42 186.719 104.156C186.719 104.572 186.559 105.052 186.239 105.596L167.135 134.444C166.559 135.212 165.903 135.596 165.167 135.596Z" fill="#FF623E"/>
<path d="M37.3217 165.3C37.6151 165.447 37.7817 165.673 37.8217 165.98C37.8751 166.287 37.8017 166.567 37.6017 166.82C37.4551 167.02 37.2617 167.133 37.0217 167.16C36.7951 167.187 36.5684 167.14 36.3417 167.02C35.9551 166.82 35.5484 166.66 35.1217 166.54C34.6951 166.42 34.2417 166.36 33.7617 166.36C33.0017 166.36 32.3151 166.487 31.7017 166.74C31.1017 166.98 30.5817 167.333 30.1417 167.8C29.7017 168.253 29.3617 168.793 29.1217 169.42C28.8951 170.047 28.7817 170.74 28.7817 171.5C28.7817 172.34 28.9084 173.087 29.1617 173.74C29.4151 174.38 29.7617 174.927 30.2017 175.38C30.6551 175.82 31.1817 176.153 31.7817 176.38C32.3951 176.593 33.0551 176.7 33.7617 176.7C34.2151 176.7 34.6551 176.647 35.0817 176.54C35.5217 176.433 35.9351 176.273 36.3217 176.06C36.5617 175.94 36.7951 175.9 37.0217 175.94C37.2617 175.967 37.4551 176.08 37.6017 176.28C37.8284 176.56 37.9084 176.847 37.8417 177.14C37.7884 177.42 37.6217 177.633 37.3417 177.78C37.0084 177.967 36.6417 178.127 36.2417 178.26C35.8417 178.393 35.4351 178.5 35.0217 178.58C34.6084 178.66 34.1884 178.7 33.7617 178.7C32.8017 178.7 31.8951 178.54 31.0417 178.22C30.1884 177.9 29.4284 177.433 28.7617 176.82C28.0951 176.207 27.5684 175.453 27.1817 174.56C26.8084 173.667 26.6217 172.647 26.6217 171.5C26.6217 170.473 26.7951 169.527 27.1417 168.66C27.5017 167.78 28.0017 167.027 28.6417 166.4C29.2951 165.76 30.0551 165.267 30.9217 164.92C31.7884 164.56 32.7351 164.38 33.7617 164.38C34.4017 164.38 35.0217 164.46 35.6217 164.62C36.2351 164.78 36.8017 165.007 37.3217 165.3ZM42.0366 177.48C42.0366 177.773 41.9366 178.02 41.7366 178.22C41.5499 178.407 41.3166 178.5 41.0366 178.5C40.7566 178.5 40.5166 178.407 40.3166 178.22C40.1299 178.02 40.0366 177.773 40.0366 177.48V164.72C40.0366 164.427 40.1366 164.187 40.3366 164C40.5366 163.8 40.7766 163.7 41.0566 163.7C41.3499 163.7 41.5832 163.8 41.7566 164C41.9432 164.187 42.0366 164.427 42.0366 164.72V177.48ZM46.8933 177.48C46.8933 177.773 46.7999 178.02 46.6133 178.22C46.4266 178.407 46.1866 178.5 45.8933 178.5C45.6133 178.5 45.3733 178.407 45.1733 178.22C44.9866 178.02 44.8933 177.773 44.8933 177.48V168.92C44.8933 168.627 44.9866 168.387 45.1733 168.2C45.3733 168 45.6133 167.9 45.8933 167.9C46.1866 167.9 46.4266 168 46.6133 168.2C46.7999 168.387 46.8933 168.627 46.8933 168.92V177.48ZM45.8733 166.58C45.4866 166.58 45.2066 166.513 45.0333 166.38C44.8599 166.233 44.7733 165.993 44.7733 165.66V165.34C44.7733 165.007 44.8666 164.773 45.0533 164.64C45.2399 164.507 45.5199 164.44 45.8933 164.44C46.2933 164.44 46.5799 164.513 46.7533 164.66C46.9266 164.793 47.0133 165.02 47.0133 165.34V165.66C47.0133 166.007 46.9199 166.247 46.7333 166.38C46.5599 166.513 46.2733 166.58 45.8733 166.58ZM54.4836 178.7C53.3769 178.7 52.4169 178.473 51.6036 178.02C50.7903 177.553 50.1569 176.92 49.7036 176.12C49.2636 175.307 49.0436 174.38 49.0436 173.34C49.0436 172.167 49.2769 171.167 49.7436 170.34C50.2236 169.5 50.8436 168.86 51.6036 168.42C52.3636 167.967 53.1703 167.74 54.0236 167.74C54.6769 167.74 55.2969 167.873 55.8836 168.14C56.4703 168.393 56.9903 168.753 57.4436 169.22C57.9103 169.673 58.2769 170.213 58.5436 170.84C58.8103 171.453 58.9503 172.127 58.9636 172.86C58.9503 173.127 58.8436 173.347 58.6436 173.52C58.4436 173.693 58.2103 173.78 57.9436 173.78H50.1636L49.6836 172.08H57.2036L56.8236 172.44V171.94C56.7969 171.473 56.6436 171.067 56.3636 170.72C56.0836 170.36 55.7369 170.087 55.3236 169.9C54.9103 169.7 54.4769 169.6 54.0236 169.6C53.6236 169.6 53.2369 169.667 52.8636 169.8C52.5036 169.92 52.1769 170.12 51.8836 170.4C51.6036 170.68 51.3769 171.053 51.2036 171.52C51.0436 171.973 50.9636 172.54 50.9636 173.22C50.9636 173.953 51.1169 174.593 51.4236 175.14C51.7303 175.687 52.1436 176.113 52.6636 176.42C53.1836 176.713 53.7569 176.86 54.3836 176.86C54.8769 176.86 55.2836 176.813 55.6036 176.72C55.9236 176.613 56.1903 176.487 56.4036 176.34C56.6169 176.193 56.8036 176.053 56.9636 175.92C57.1636 175.8 57.3636 175.74 57.5636 175.74C57.8036 175.74 58.0036 175.827 58.1636 176C58.3236 176.16 58.4036 176.353 58.4036 176.58C58.4036 176.873 58.2569 177.14 57.9636 177.38C57.6036 177.727 57.1036 178.033 56.4636 178.3C55.8369 178.567 55.1769 178.7 54.4836 178.7ZM66.6442 167.74C67.5909 167.74 68.3242 167.94 68.8442 168.34C69.3642 168.727 69.7242 169.253 69.9242 169.92C70.1376 170.573 70.2442 171.307 70.2442 172.12V177.48C70.2442 177.773 70.1442 178.02 69.9442 178.22C69.7576 178.407 69.5242 178.5 69.2442 178.5C68.9509 178.5 68.7109 178.407 68.5242 178.22C68.3376 178.02 68.2442 177.773 68.2442 177.48V172.14C68.2442 171.66 68.1776 171.233 68.0442 170.86C67.9109 170.473 67.6776 170.167 67.3442 169.94C67.0242 169.7 66.5709 169.58 65.9842 169.58C65.4376 169.58 64.9576 169.7 64.5442 169.94C64.1309 170.167 63.8042 170.473 63.5642 170.86C63.3376 171.233 63.2242 171.66 63.2242 172.14V177.48C63.2242 177.773 63.1242 178.02 62.9242 178.22C62.7376 178.407 62.5042 178.5 62.2242 178.5C61.9309 178.5 61.6909 178.407 61.5042 178.22C61.3176 178.02 61.2242 177.773 61.2242 177.48V169C61.2242 168.707 61.3176 168.467 61.5042 168.28C61.6909 168.08 61.9309 167.98 62.2242 167.98C62.5042 167.98 62.7376 168.08 62.9242 168.28C63.1242 168.467 63.2242 168.707 63.2242 169V170.12L62.8642 170.32C62.9576 170.027 63.1176 169.733 63.3442 169.44C63.5842 169.133 63.8709 168.853 64.2042 168.6C64.5376 168.333 64.9109 168.127 65.3242 167.98C65.7376 167.82 66.1776 167.74 66.6442 167.74ZM72.8811 168.1H77.5811C77.8478 168.1 78.0678 168.193 78.2411 168.38C78.4278 168.553 78.5211 168.773 78.5211 169.04C78.5211 169.293 78.4278 169.507 78.2411 169.68C78.0678 169.853 77.8478 169.94 77.5811 169.94H72.8811C72.6144 169.94 72.3878 169.853 72.2011 169.68C72.0278 169.493 71.9411 169.273 71.9411 169.02C71.9411 168.753 72.0278 168.533 72.2011 168.36C72.3878 168.187 72.6144 168.1 72.8811 168.1ZM74.9811 165.5C75.2744 165.5 75.5144 165.6 75.7011 165.8C75.8878 165.987 75.9811 166.227 75.9811 166.52V175.8C75.9811 176.04 76.0211 176.233 76.1011 176.38C76.1811 176.527 76.2878 176.627 76.4211 176.68C76.5678 176.733 76.7144 176.76 76.8611 176.76C77.0078 176.76 77.1344 176.733 77.2411 176.68C77.3611 176.627 77.5011 176.6 77.6611 176.6C77.8211 176.6 77.9678 176.673 78.1011 176.82C78.2344 176.967 78.3011 177.167 78.3011 177.42C78.3011 177.74 78.1278 178 77.7811 178.2C77.4344 178.4 77.0611 178.5 76.6611 178.5C76.4344 178.5 76.1678 178.48 75.8611 178.44C75.5544 178.4 75.2544 178.3 74.9611 178.14C74.6811 177.98 74.4478 177.727 74.2611 177.38C74.0744 177.02 73.9811 176.52 73.9811 175.88V166.52C73.9811 166.227 74.0744 165.987 74.2611 165.8C74.4611 165.6 74.7011 165.5 74.9811 165.5ZM90.8223 178.7C89.8623 178.7 89.009 178.567 88.2623 178.3C87.5157 178.033 86.8023 177.593 86.1223 176.98C85.9757 176.873 85.8623 176.747 85.7823 176.6C85.7157 176.44 85.6823 176.28 85.6823 176.12C85.6823 175.867 85.7757 175.64 85.9623 175.44C86.149 175.24 86.3823 175.14 86.6623 175.14C86.8757 175.14 87.0757 175.213 87.2623 175.36C87.769 175.827 88.2957 176.18 88.8423 176.42C89.4023 176.66 90.0557 176.78 90.8023 176.78C91.3357 176.78 91.8223 176.693 92.2623 176.52C92.7157 176.347 93.0757 176.113 93.3423 175.82C93.609 175.527 93.7423 175.187 93.7423 174.8C93.7423 174.32 93.6023 173.927 93.3223 173.62C93.0557 173.3 92.6623 173.04 92.1423 172.84C91.6357 172.627 91.0223 172.447 90.3023 172.3C89.6357 172.18 89.0357 172.013 88.5023 171.8C87.9823 171.587 87.5357 171.32 87.1623 171C86.789 170.667 86.5023 170.273 86.3023 169.82C86.1023 169.367 86.0023 168.84 86.0023 168.24C86.0023 167.427 86.2157 166.727 86.6423 166.14C87.069 165.553 87.649 165.1 88.3823 164.78C89.1157 164.46 89.9423 164.3 90.8623 164.3C91.7023 164.3 92.489 164.433 93.2223 164.7C93.9557 164.953 94.549 165.3 95.0023 165.74C95.3223 166.02 95.4823 166.32 95.4823 166.64C95.4823 166.88 95.3823 167.107 95.1823 167.32C94.9957 167.52 94.7757 167.62 94.5223 167.62C94.3357 167.62 94.1757 167.567 94.0423 167.46C93.829 167.233 93.5423 167.033 93.1823 166.86C92.8223 166.673 92.4357 166.52 92.0223 166.4C91.6223 166.28 91.2357 166.22 90.8623 166.22C90.2623 166.22 89.749 166.307 89.3223 166.48C88.8957 166.64 88.569 166.867 88.3423 167.16C88.1157 167.44 88.0023 167.773 88.0023 168.16C88.0023 168.613 88.129 168.987 88.3823 169.28C88.649 169.573 89.0157 169.813 89.4823 170C89.949 170.173 90.4823 170.333 91.0823 170.48C91.8157 170.64 92.469 170.82 93.0423 171.02C93.629 171.22 94.1223 171.48 94.5223 171.8C94.9223 172.107 95.229 172.493 95.4423 172.96C95.6557 173.427 95.7623 174.007 95.7623 174.7C95.7623 175.5 95.5357 176.2 95.0823 176.8C94.629 177.4 94.029 177.867 93.2823 178.2C92.549 178.533 91.729 178.7 90.8223 178.7ZM106.622 167.82C106.915 167.82 107.155 167.92 107.342 168.12C107.528 168.307 107.622 168.547 107.622 168.84V177.48C107.622 177.773 107.528 178.02 107.342 178.22C107.155 178.407 106.915 178.5 106.622 178.5C106.342 178.5 106.102 178.407 105.902 178.22C105.715 178.02 105.622 177.773 105.622 177.48V176.04L106.042 176.1C106.042 176.34 105.942 176.607 105.742 176.9C105.555 177.193 105.295 177.48 104.962 177.76C104.628 178.027 104.235 178.253 103.782 178.44C103.328 178.613 102.842 178.7 102.322 178.7C101.402 178.7 100.575 178.467 99.8416 178C99.1082 177.52 98.5282 176.867 98.1016 176.04C97.6749 175.213 97.4616 174.273 97.4616 173.22C97.4616 172.14 97.6749 171.193 98.1016 170.38C98.5282 169.553 99.1016 168.907 99.8216 168.44C100.555 167.973 101.368 167.74 102.262 167.74C102.835 167.74 103.362 167.833 103.842 168.02C104.335 168.207 104.762 168.447 105.122 168.74C105.482 169.033 105.755 169.347 105.942 169.68C106.142 170 106.242 170.307 106.242 170.6L105.622 170.66V168.84C105.622 168.56 105.715 168.32 105.902 168.12C106.102 167.92 106.342 167.82 106.622 167.82ZM102.542 176.86C103.168 176.86 103.722 176.7 104.202 176.38C104.682 176.06 105.055 175.627 105.322 175.08C105.588 174.52 105.722 173.9 105.722 173.22C105.722 172.527 105.588 171.907 105.322 171.36C105.055 170.813 104.682 170.38 104.202 170.06C103.722 169.74 103.168 169.58 102.542 169.58C101.928 169.58 101.382 169.74 100.902 170.06C100.435 170.38 100.062 170.813 99.7816 171.36C99.5149 171.907 99.3816 172.527 99.3816 173.22C99.3816 173.9 99.5149 174.52 99.7816 175.08C100.062 175.627 100.435 176.06 100.902 176.38C101.382 176.7 101.928 176.86 102.542 176.86ZM110.283 168.1H114.983C115.25 168.1 115.47 168.193 115.643 168.38C115.83 168.553 115.923 168.773 115.923 169.04C115.923 169.293 115.83 169.507 115.643 169.68C115.47 169.853 115.25 169.94 114.983 169.94H110.283C110.017 169.94 109.79 169.853 109.603 169.68C109.43 169.493 109.343 169.273 109.343 169.02C109.343 168.753 109.43 168.533 109.603 168.36C109.79 168.187 110.017 168.1 110.283 168.1ZM112.383 165.5C112.677 165.5 112.917 165.6 113.103 165.8C113.29 165.987 113.383 166.227 113.383 166.52V175.8C113.383 176.04 113.423 176.233 113.503 176.38C113.583 176.527 113.69 176.627 113.823 176.68C113.97 176.733 114.117 176.76 114.263 176.76C114.41 176.76 114.537 176.733 114.643 176.68C114.763 176.627 114.903 176.6 115.063 176.6C115.223 176.6 115.37 176.673 115.503 176.82C115.637 176.967 115.703 177.167 115.703 177.42C115.703 177.74 115.53 178 115.183 178.2C114.837 178.4 114.463 178.5 114.063 178.5C113.837 178.5 113.57 178.48 113.263 178.44C112.957 178.4 112.657 178.3 112.363 178.14C112.083 177.98 111.85 177.727 111.663 177.38C111.477 177.02 111.383 176.52 111.383 175.88V166.52C111.383 166.227 111.477 165.987 111.663 165.8C111.863 165.6 112.103 165.5 112.383 165.5ZM120.018 177.48C120.018 177.773 119.925 178.02 119.738 178.22C119.552 178.407 119.312 178.5 119.018 178.5C118.738 178.5 118.498 178.407 118.298 178.22C118.112 178.02 118.018 177.773 118.018 177.48V168.92C118.018 168.627 118.112 168.387 118.298 168.2C118.498 168 118.738 167.9 119.018 167.9C119.312 167.9 119.552 168 119.738 168.2C119.925 168.387 120.018 168.627 120.018 168.92V177.48ZM118.998 166.58C118.612 166.58 118.332 166.513 118.158 166.38C117.985 166.233 117.898 165.993 117.898 165.66V165.34C117.898 165.007 117.992 164.773 118.178 164.64C118.365 164.507 118.645 164.44 119.018 164.44C119.418 164.44 119.705 164.513 119.878 164.66C120.052 164.793 120.138 165.02 120.138 165.34V165.66C120.138 166.007 120.045 166.247 119.858 166.38C119.685 166.513 119.398 166.58 118.998 166.58ZM122.089 176.86C121.969 176.673 121.915 176.46 121.929 176.22C121.942 175.967 122.082 175.753 122.349 175.58C122.535 175.46 122.729 175.413 122.929 175.44C123.142 175.453 123.342 175.553 123.529 175.74C123.902 176.153 124.315 176.48 124.769 176.72C125.235 176.96 125.795 177.08 126.449 177.08C126.715 177.067 126.989 177.027 127.269 176.96C127.549 176.88 127.789 176.747 127.989 176.56C128.189 176.36 128.289 176.073 128.289 175.7C128.289 175.367 128.182 175.1 127.969 174.9C127.755 174.7 127.475 174.54 127.129 174.42C126.782 174.287 126.409 174.167 126.009 174.06C125.582 173.94 125.149 173.807 124.709 173.66C124.282 173.513 123.895 173.327 123.549 173.1C123.202 172.86 122.915 172.553 122.689 172.18C122.475 171.807 122.369 171.347 122.369 170.8C122.369 170.173 122.542 169.633 122.889 169.18C123.249 168.727 123.709 168.373 124.269 168.12C124.842 167.867 125.462 167.74 126.129 167.74C126.515 167.74 126.922 167.793 127.349 167.9C127.775 167.993 128.189 168.147 128.589 168.36C128.989 168.573 129.335 168.853 129.629 169.2C129.762 169.373 129.835 169.58 129.849 169.82C129.875 170.06 129.769 170.273 129.529 170.46C129.369 170.593 129.175 170.653 128.949 170.64C128.722 170.627 128.535 170.553 128.389 170.42C128.135 170.1 127.809 169.853 127.409 169.68C127.009 169.493 126.555 169.4 126.049 169.4C125.795 169.4 125.529 169.44 125.249 169.52C124.982 169.587 124.755 169.713 124.569 169.9C124.382 170.087 124.289 170.36 124.289 170.72C124.289 171.053 124.395 171.32 124.609 171.52C124.835 171.72 125.129 171.887 125.489 172.02C125.849 172.153 126.242 172.273 126.669 172.38C127.082 172.487 127.489 172.613 127.889 172.76C128.302 172.907 128.669 173.1 128.989 173.34C129.322 173.567 129.589 173.867 129.789 174.24C130.002 174.6 130.109 175.06 130.109 175.62C130.109 176.273 129.915 176.833 129.529 177.3C129.155 177.753 128.675 178.1 128.089 178.34C127.515 178.58 126.909 178.7 126.269 178.7C125.509 178.7 124.749 178.567 123.989 178.3C123.242 178.02 122.609 177.54 122.089 176.86ZM137.159 163.72C137.413 163.72 137.673 163.753 137.939 163.82C138.206 163.887 138.426 164 138.599 164.16C138.786 164.307 138.879 164.513 138.879 164.78C138.879 165.047 138.799 165.267 138.639 165.44C138.479 165.6 138.293 165.68 138.079 165.68C137.946 165.68 137.766 165.653 137.539 165.6C137.313 165.533 137.086 165.5 136.859 165.5C136.553 165.5 136.306 165.573 136.119 165.72C135.933 165.853 135.799 166.027 135.719 166.24C135.639 166.44 135.599 166.64 135.599 166.84V177.48C135.599 177.773 135.499 178.02 135.299 178.22C135.113 178.407 134.879 178.5 134.599 178.5C134.306 178.5 134.066 178.407 133.879 178.22C133.693 178.02 133.599 177.773 133.599 177.48V166.86C133.599 165.94 133.899 165.187 134.499 164.6C135.113 164.013 135.999 163.72 137.159 163.72ZM137.559 168.16C137.826 168.16 138.046 168.247 138.219 168.42C138.393 168.593 138.479 168.813 138.479 169.08C138.479 169.347 138.393 169.567 138.219 169.74C138.046 169.913 137.826 170 137.559 170H132.379C132.126 170 131.906 169.913 131.719 169.74C131.546 169.567 131.459 169.347 131.459 169.08C131.459 168.813 131.546 168.593 131.719 168.42C131.906 168.247 132.126 168.16 132.379 168.16H137.559ZM149.102 167.82C149.395 167.82 149.635 167.92 149.822 168.12C150.009 168.307 150.102 168.547 150.102 168.84V177.48C150.102 177.773 150.009 178.02 149.822 178.22C149.635 178.407 149.395 178.5 149.102 178.5C148.822 178.5 148.582 178.407 148.382 178.22C148.195 178.02 148.102 177.773 148.102 177.48V176.04L148.522 176.1C148.522 176.34 148.422 176.607 148.222 176.9C148.035 177.193 147.775 177.48 147.442 177.76C147.109 178.027 146.715 178.253 146.262 178.44C145.809 178.613 145.322 178.7 144.802 178.7C143.882 178.7 143.055 178.467 142.322 178C141.589 177.52 141.009 176.867 140.582 176.04C140.155 175.213 139.942 174.273 139.942 173.22C139.942 172.14 140.155 171.193 140.582 170.38C141.009 169.553 141.582 168.907 142.302 168.44C143.035 167.973 143.849 167.74 144.742 167.74C145.315 167.74 145.842 167.833 146.322 168.02C146.815 168.207 147.242 168.447 147.602 168.74C147.962 169.033 148.235 169.347 148.422 169.68C148.622 170 148.722 170.307 148.722 170.6L148.102 170.66V168.84C148.102 168.56 148.195 168.32 148.382 168.12C148.582 167.92 148.822 167.82 149.102 167.82ZM145.022 176.86C145.649 176.86 146.202 176.7 146.682 176.38C147.162 176.06 147.535 175.627 147.802 175.08C148.069 174.52 148.202 173.9 148.202 173.22C148.202 172.527 148.069 171.907 147.802 171.36C147.535 170.813 147.162 170.38 146.682 170.06C146.202 169.74 145.649 169.58 145.022 169.58C144.409 169.58 143.862 169.74 143.382 170.06C142.915 170.38 142.542 170.813 142.262 171.36C141.995 171.907 141.862 172.527 141.862 173.22C141.862 173.9 141.995 174.52 142.262 175.08C142.542 175.627 142.915 176.06 143.382 176.38C143.862 176.7 144.409 176.86 145.022 176.86ZM157.564 167.74C158.284 167.74 158.924 167.82 159.484 167.98C160.044 168.127 160.477 168.34 160.784 168.62C161.104 168.887 161.264 169.2 161.264 169.56C161.264 169.787 161.197 170 161.064 170.2C160.931 170.387 160.731 170.48 160.464 170.48C160.277 170.48 160.117 170.447 159.984 170.38C159.864 170.313 159.751 170.233 159.644 170.14C159.537 170.047 159.404 169.953 159.244 169.86C159.097 169.78 158.877 169.713 158.584 169.66C158.304 169.607 158.051 169.58 157.824 169.58C157.117 169.58 156.504 169.74 155.984 170.06C155.477 170.38 155.077 170.813 154.784 171.36C154.504 171.907 154.364 172.527 154.364 173.22C154.364 173.913 154.504 174.533 154.784 175.08C155.077 175.627 155.471 176.06 155.964 176.38C156.471 176.7 157.057 176.86 157.724 176.86C158.124 176.86 158.451 176.833 158.704 176.78C158.957 176.713 159.177 176.633 159.364 176.54C159.564 176.42 159.731 176.3 159.864 176.18C160.011 176.047 160.211 175.98 160.464 175.98C160.757 175.98 160.977 176.073 161.124 176.26C161.284 176.433 161.364 176.653 161.364 176.92C161.364 177.213 161.184 177.5 160.824 177.78C160.477 178.047 160.011 178.267 159.424 178.44C158.837 178.613 158.191 178.7 157.484 178.7C156.444 178.7 155.537 178.46 154.764 177.98C154.004 177.5 153.411 176.847 152.984 176.02C152.571 175.193 152.364 174.26 152.364 173.22C152.364 172.167 152.584 171.233 153.024 170.42C153.464 169.593 154.077 168.94 154.864 168.46C155.651 167.98 156.551 167.74 157.564 167.74ZM163.135 168.1H167.835C168.102 168.1 168.322 168.193 168.495 168.38C168.682 168.553 168.775 168.773 168.775 169.04C168.775 169.293 168.682 169.507 168.495 169.68C168.322 169.853 168.102 169.94 167.835 169.94H163.135C162.868 169.94 162.642 169.853 162.455 169.68C162.282 169.493 162.195 169.273 162.195 169.02C162.195 168.753 162.282 168.533 162.455 168.36C162.642 168.187 162.868 168.1 163.135 168.1ZM165.235 165.5C165.528 165.5 165.768 165.6 165.955 165.8C166.142 165.987 166.235 166.227 166.235 166.52V175.8C166.235 176.04 166.275 176.233 166.355 176.38C166.435 176.527 166.542 176.627 166.675 176.68C166.822 176.733 166.968 176.76 167.115 176.76C167.262 176.76 167.388 176.733 167.495 176.68C167.615 176.627 167.755 176.6 167.915 176.6C168.075 176.6 168.222 176.673 168.355 176.82C168.488 176.967 168.555 177.167 168.555 177.42C168.555 177.74 168.382 178 168.035 178.2C167.688 178.4 167.315 178.5 166.915 178.5C166.688 178.5 166.422 178.48 166.115 178.44C165.808 178.4 165.508 178.3 165.215 178.14C164.935 177.98 164.702 177.727 164.515 177.38C164.328 177.02 164.235 176.52 164.235 175.88V166.52C164.235 166.227 164.328 165.987 164.515 165.8C164.715 165.6 164.955 165.5 165.235 165.5ZM172.87 177.48C172.87 177.773 172.777 178.02 172.59 178.22C172.403 178.407 172.163 178.5 171.87 178.5C171.59 178.5 171.35 178.407 171.15 178.22C170.963 178.02 170.87 177.773 170.87 177.48V168.92C170.87 168.627 170.963 168.387 171.15 168.2C171.35 168 171.59 167.9 171.87 167.9C172.163 167.9 172.403 168 172.59 168.2C172.777 168.387 172.87 168.627 172.87 168.92V177.48ZM171.85 166.58C171.463 166.58 171.183 166.513 171.01 166.38C170.837 166.233 170.75 165.993 170.75 165.66V165.34C170.75 165.007 170.843 164.773 171.03 164.64C171.217 164.507 171.497 164.44 171.87 164.44C172.27 164.44 172.557 164.513 172.73 164.66C172.903 164.793 172.99 165.02 172.99 165.34V165.66C172.99 166.007 172.897 166.247 172.71 166.38C172.537 166.513 172.25 166.58 171.85 166.58ZM185.64 173.24C185.64 174.307 185.407 175.253 184.94 176.08C184.473 176.893 183.84 177.533 183.04 178C182.24 178.467 181.34 178.7 180.34 178.7C179.34 178.7 178.44 178.467 177.64 178C176.84 177.533 176.2 176.893 175.72 176.08C175.253 175.253 175.02 174.307 175.02 173.24C175.02 172.16 175.253 171.213 175.72 170.4C176.2 169.573 176.84 168.927 177.64 168.46C178.44 167.98 179.34 167.74 180.34 167.74C181.34 167.74 182.24 167.98 183.04 168.46C183.84 168.927 184.473 169.573 184.94 170.4C185.407 171.213 185.64 172.16 185.64 173.24ZM183.64 173.24C183.64 172.507 183.493 171.873 183.2 171.34C182.907 170.793 182.507 170.367 182 170.06C181.507 169.74 180.953 169.58 180.34 169.58C179.727 169.58 179.167 169.74 178.66 170.06C178.153 170.367 177.753 170.793 177.46 171.34C177.167 171.873 177.02 172.507 177.02 173.24C177.02 173.947 177.167 174.573 177.46 175.12C177.753 175.667 178.153 176.093 178.66 176.4C179.167 176.707 179.727 176.86 180.34 176.86C180.953 176.86 181.507 176.707 182 176.4C182.507 176.093 182.907 175.667 183.2 175.12C183.493 174.573 183.64 173.947 183.64 173.24ZM193.324 167.74C194.271 167.74 195.004 167.94 195.524 168.34C196.044 168.727 196.404 169.253 196.604 169.92C196.817 170.573 196.924 171.307 196.924 172.12V177.48C196.924 177.773 196.824 178.02 196.624 178.22C196.437 178.407 196.204 178.5 195.924 178.5C195.631 178.5 195.391 178.407 195.204 178.22C195.017 178.02 194.924 177.773 194.924 177.48V172.14C194.924 171.66 194.857 171.233 194.724 170.86C194.591 170.473 194.357 170.167 194.024 169.94C193.704 169.7 193.251 169.58 192.664 169.58C192.117 169.58 191.637 169.7 191.224 169.94C190.811 170.167 190.484 170.473 190.244 170.86C190.017 171.233 189.904 171.66 189.904 172.14V177.48C189.904 177.773 189.804 178.02 189.604 178.22C189.417 178.407 189.184 178.5 188.904 178.5C188.611 178.5 188.371 178.407 188.184 178.22C187.997 178.02 187.904 177.773 187.904 177.48V169C187.904 168.707 187.997 168.467 188.184 168.28C188.371 168.08 188.611 167.98 188.904 167.98C189.184 167.98 189.417 168.08 189.604 168.28C189.804 168.467 189.904 168.707 189.904 169V170.12L189.544 170.32C189.637 170.027 189.797 169.733 190.024 169.44C190.264 169.133 190.551 168.853 190.884 168.6C191.217 168.333 191.591 168.127 192.004 167.98C192.417 167.82 192.857 167.74 193.324 167.74ZM206.687 178.5C206.367 178.5 206.087 178.407 205.847 178.22C205.607 178.02 205.487 177.773 205.487 177.48V165.52C205.487 165.227 205.587 164.987 205.787 164.8C205.987 164.6 206.227 164.5 206.507 164.5H212.147C212.867 164.5 213.527 164.68 214.127 165.04C214.727 165.387 215.207 165.873 215.567 166.5C215.941 167.113 216.127 167.82 216.127 168.62C216.127 169.153 216.021 169.667 215.807 170.16C215.594 170.64 215.307 171.067 214.947 171.44C214.587 171.813 214.181 172.093 213.727 172.28L213.507 171.9C213.921 172.047 214.281 172.26 214.587 172.54C214.894 172.807 215.134 173.127 215.307 173.5C215.494 173.86 215.594 174.273 215.607 174.74C215.647 175.153 215.681 175.5 215.707 175.78C215.747 176.047 215.801 176.267 215.867 176.44C215.934 176.613 216.054 176.747 216.227 176.84C216.467 176.973 216.614 177.173 216.667 177.44C216.734 177.707 216.681 177.947 216.507 178.16C216.387 178.32 216.234 178.427 216.047 178.48C215.874 178.52 215.694 178.527 215.507 178.5C215.321 178.46 215.161 178.407 215.027 178.34C214.814 178.207 214.594 178.02 214.367 177.78C214.154 177.527 213.981 177.18 213.847 176.74C213.714 176.3 213.647 175.72 213.647 175C213.647 174.667 213.594 174.38 213.487 174.14C213.381 173.9 213.234 173.707 213.047 173.56C212.861 173.4 212.641 173.287 212.387 173.22C212.134 173.14 211.854 173.1 211.547 173.1H207.307L207.587 172.7V177.48C207.587 177.773 207.507 178.02 207.347 178.22C207.187 178.407 206.967 178.5 206.687 178.5ZM207.327 171.36H212.107C212.414 171.347 212.707 171.227 212.987 171C213.281 170.76 213.514 170.44 213.687 170.04C213.874 169.64 213.967 169.187 213.967 168.68C213.967 168.04 213.774 167.507 213.387 167.08C213.014 166.64 212.567 166.42 212.047 166.42H207.367L207.587 165.9V171.78L207.327 171.36ZM227.579 167.82C227.872 167.82 228.112 167.92 228.299 168.12C228.485 168.307 228.579 168.547 228.579 168.84V177.48C228.579 177.773 228.485 178.02 228.299 178.22C228.112 178.407 227.872 178.5 227.579 178.5C227.299 178.5 227.059 178.407 226.859 178.22C226.672 178.02 226.579 177.773 226.579 177.48V176.04L226.999 176.1C226.999 176.34 226.899 176.607 226.699 176.9C226.512 177.193 226.252 177.48 225.919 177.76C225.585 178.027 225.192 178.253 224.739 178.44C224.285 178.613 223.799 178.7 223.279 178.7C222.359 178.7 221.532 178.467 220.799 178C220.065 177.52 219.485 176.867 219.059 176.04C218.632 175.213 218.419 174.273 218.419 173.22C218.419 172.14 218.632 171.193 219.059 170.38C219.485 169.553 220.059 168.907 220.779 168.44C221.512 167.973 222.325 167.74 223.219 167.74C223.792 167.74 224.319 167.833 224.799 168.02C225.292 168.207 225.719 168.447 226.079 168.74C226.439 169.033 226.712 169.347 226.899 169.68C227.099 170 227.199 170.307 227.199 170.6L226.579 170.66V168.84C226.579 168.56 226.672 168.32 226.859 168.12C227.059 167.92 227.299 167.82 227.579 167.82ZM223.499 176.86C224.125 176.86 224.679 176.7 225.159 176.38C225.639 176.06 226.012 175.627 226.279 175.08C226.545 174.52 226.679 173.9 226.679 173.22C226.679 172.527 226.545 171.907 226.279 171.36C226.012 170.813 225.639 170.38 225.159 170.06C224.679 169.74 224.125 169.58 223.499 169.58C222.885 169.58 222.339 169.74 221.859 170.06C221.392 170.38 221.019 170.813 220.739 171.36C220.472 171.907 220.339 172.527 220.339 173.22C220.339 173.9 220.472 174.52 220.739 175.08C221.019 175.627 221.392 176.06 221.859 176.38C222.339 176.7 222.885 176.86 223.499 176.86ZM231.24 168.1H235.94C236.207 168.1 236.427 168.193 236.6 168.38C236.787 168.553 236.88 168.773 236.88 169.04C236.88 169.293 236.787 169.507 236.6 169.68C236.427 169.853 236.207 169.94 235.94 169.94H231.24C230.974 169.94 230.747 169.853 230.56 169.68C230.387 169.493 230.3 169.273 230.3 169.02C230.3 168.753 230.387 168.533 230.56 168.36C230.747 168.187 230.974 168.1 231.24 168.1ZM233.34 165.5C233.634 165.5 233.874 165.6 234.06 165.8C234.247 165.987 234.34 166.227 234.34 166.52V175.8C234.34 176.04 234.38 176.233 234.46 176.38C234.54 176.527 234.647 176.627 234.78 176.68C234.927 176.733 235.074 176.76 235.22 176.76C235.367 176.76 235.494 176.733 235.6 176.68C235.72 176.627 235.86 176.6 236.02 176.6C236.18 176.6 236.327 176.673 236.46 176.82C236.594 176.967 236.66 177.167 236.66 177.42C236.66 177.74 236.487 178 236.14 178.2C235.794 178.4 235.42 178.5 235.02 178.5C234.794 178.5 234.527 178.48 234.22 178.44C233.914 178.4 233.614 178.3 233.32 178.14C233.04 177.98 232.807 177.727 232.62 177.38C232.434 177.02 232.34 176.52 232.34 175.88V166.52C232.34 166.227 232.434 165.987 232.62 165.8C232.82 165.6 233.06 165.5 233.34 165.5ZM243.898 178.7C242.791 178.7 241.831 178.473 241.018 178.02C240.204 177.553 239.571 176.92 239.118 176.12C238.678 175.307 238.458 174.38 238.458 173.34C238.458 172.167 238.691 171.167 239.158 170.34C239.638 169.5 240.258 168.86 241.018 168.42C241.778 167.967 242.584 167.74 243.438 167.74C244.091 167.74 244.711 167.873 245.298 168.14C245.884 168.393 246.404 168.753 246.858 169.22C247.324 169.673 247.691 170.213 247.958 170.84C248.224 171.453 248.364 172.127 248.378 172.86C248.364 173.127 248.258 173.347 248.058 173.52C247.858 173.693 247.624 173.78 247.358 173.78H239.578L239.098 172.08H246.618L246.238 172.44V171.94C246.211 171.473 246.058 171.067 245.778 170.72C245.498 170.36 245.151 170.087 244.738 169.9C244.324 169.7 243.891 169.6 243.438 169.6C243.038 169.6 242.651 169.667 242.278 169.8C241.918 169.92 241.591 170.12 241.298 170.4C241.018 170.68 240.791 171.053 240.618 171.52C240.458 171.973 240.378 172.54 240.378 173.22C240.378 173.953 240.531 174.593 240.838 175.14C241.144 175.687 241.558 176.113 242.078 176.42C242.598 176.713 243.171 176.86 243.798 176.86C244.291 176.86 244.698 176.813 245.018 176.72C245.338 176.613 245.604 176.487 245.818 176.34C246.031 176.193 246.218 176.053 246.378 175.92C246.578 175.8 246.778 175.74 246.978 175.74C247.218 175.74 247.418 175.827 247.578 176C247.738 176.16 247.818 176.353 247.818 176.58C247.818 176.873 247.671 177.14 247.378 177.38C247.018 177.727 246.518 178.033 245.878 178.3C245.251 178.567 244.591 178.7 243.898 178.7Z" fill="#0A0D12"/>
</svg>
