<svg width="275" height="275" viewBox="0 0 275 275" fill="none" xmlns="http://www.w3.org/2000/svg">
<rect x="0.5" y="0.5" width="274" height="274" rx="137" fill="#FAFAFA"/>
<rect x="0.5" y="0.5" width="274" height="274" rx="137" stroke="#DEDCDC"/>
<path d="M107.583 135.98C106.399 135.98 105.135 135.804 103.791 135.452C102.447 135.068 101.343 134.524 100.479 133.82C100.063 133.468 99.7267 133.02 99.4707 132.476C99.2467 131.9 99.1347 131.356 99.1347 130.844C99.1347 130.3 99.3587 129.788 99.8067 129.308C100.287 128.828 100.959 128.588 101.823 128.588C102.399 128.588 103.119 128.892 103.983 129.5C104.495 129.82 105.055 130.108 105.663 130.364C106.271 130.62 106.895 130.748 107.535 130.748C109.071 130.748 110.399 130.476 111.519 129.932C112.639 129.356 113.503 128.572 114.111 127.58C114.719 126.588 115.023 125.42 115.023 124.076C115.023 122.86 114.735 121.82 114.159 120.956C113.615 120.092 112.879 119.42 111.951 118.94C111.055 118.46 110.079 118.22 109.023 118.22C108.031 118.22 107.167 118.38 106.431 118.7C105.695 119.02 105.023 119.356 104.415 119.708C103.807 120.028 103.199 120.188 102.591 120.188C101.535 120.188 100.751 119.964 100.239 119.516C99.7267 119.036 99.4067 118.476 99.2787 117.836C99.1507 117.196 99.1187 116.62 99.1827 116.108L100.671 104.444C100.799 103.772 101.119 103.228 101.631 102.812C102.175 102.364 102.815 102.14 103.551 102.14H117.423C118.191 102.14 118.831 102.396 119.343 102.908C119.855 103.42 120.111 104.06 120.111 104.828C120.111 105.564 119.855 106.188 119.343 106.7C118.831 107.18 118.191 107.42 117.423 107.42H105.039L105.567 106.988L104.271 116.732L103.647 114.908C103.839 114.588 104.255 114.284 104.895 113.996C105.535 113.708 106.271 113.468 107.103 113.276C107.935 113.052 108.751 112.94 109.551 112.94C111.695 112.94 113.615 113.436 115.311 114.428C117.007 115.388 118.335 116.716 119.295 118.412C120.287 120.076 120.783 121.964 120.783 124.076C120.783 126.476 120.239 128.572 119.151 130.364C118.063 132.156 116.527 133.548 114.543 134.54C112.591 135.5 110.271 135.98 107.583 135.98ZM137.447 135.98C134.695 135.98 132.359 135.26 130.439 133.82C128.551 132.348 127.111 130.316 126.119 127.724C125.127 125.1 124.631 122.092 124.631 118.7C124.631 115.276 125.127 112.268 126.119 109.676C127.111 107.084 128.551 105.068 130.439 103.628C132.359 102.156 134.695 101.42 137.447 101.42C140.199 101.42 142.519 102.156 144.407 103.628C146.327 105.068 147.783 107.084 148.775 109.676C149.767 112.268 150.263 115.276 150.263 118.7C150.263 122.092 149.767 125.1 148.775 127.724C147.783 130.316 146.327 132.348 144.407 133.82C142.519 135.26 140.199 135.98 137.447 135.98ZM137.447 130.22C138.791 130.22 139.943 129.804 140.903 128.972C141.895 128.108 142.663 126.828 143.207 125.132C143.751 123.404 144.023 121.26 144.023 118.7C144.023 116.108 143.751 113.964 143.207 112.268C142.663 110.572 141.895 109.308 140.903 108.476C139.943 107.612 138.791 107.18 137.447 107.18C136.135 107.18 134.983 107.612 133.991 108.476C132.999 109.308 132.231 110.572 131.687 112.268C131.143 113.964 130.871 116.108 130.871 118.7C130.871 121.26 131.143 123.404 131.687 125.132C132.231 126.828 132.999 128.108 133.991 128.972C134.983 129.804 136.135 130.22 137.447 130.22ZM155.843 122.252C155.075 122.252 154.435 121.996 153.923 121.484C153.411 120.972 153.155 120.332 153.155 119.564C153.155 118.796 153.411 118.172 153.923 117.692C154.435 117.212 155.075 116.972 155.843 116.972H175.379C176.147 116.972 176.787 117.228 177.299 117.74C177.811 118.22 178.067 118.844 178.067 119.612C178.067 120.38 177.811 121.02 177.299 121.532C176.787 122.012 176.147 122.252 175.379 122.252H155.843ZM165.539 131.612C164.643 131.612 163.891 131.324 163.283 130.748C162.707 130.172 162.419 129.436 162.419 128.54V109.82C162.419 108.924 162.723 108.188 163.331 107.612C163.939 107.036 164.691 106.748 165.587 106.748C166.515 106.748 167.251 107.036 167.795 107.612C168.371 108.188 168.659 108.924 168.659 109.82V128.54C168.659 129.436 168.371 130.172 167.795 130.748C167.219 131.324 166.467 131.612 165.539 131.612Z" fill="#FF623E"/>
<path d="M58.0998 164.5C58.8065 164.5 59.4598 164.693 60.0598 165.08C60.6598 165.453 61.1398 165.967 61.4998 166.62C61.8598 167.273 62.0398 168.007 62.0398 168.82C62.0398 169.633 61.8598 170.373 61.4998 171.04C61.1398 171.693 60.6598 172.22 60.0598 172.62C59.4598 173.007 58.8065 173.2 58.0998 173.2H54.2398L54.3998 172.88V177.48C54.3998 177.773 54.3065 178.02 54.1198 178.22C53.9465 178.407 53.7132 178.5 53.4198 178.5C53.1398 178.5 52.9065 178.407 52.7198 178.22C52.5465 178.02 52.4598 177.773 52.4598 177.48V165.52C52.4598 165.227 52.5598 164.987 52.7598 164.8C52.9598 164.6 53.1998 164.5 53.4798 164.5H58.0998ZM58.0998 171.28C58.4465 171.28 58.7598 171.167 59.0398 170.94C59.3332 170.713 59.5665 170.413 59.7398 170.04C59.9265 169.667 60.0198 169.26 60.0198 168.82C60.0198 168.38 59.9265 167.98 59.7398 167.62C59.5665 167.26 59.3332 166.973 59.0398 166.76C58.7598 166.533 58.4465 166.42 58.0998 166.42H54.1998L54.3998 166.12V171.54L54.2198 171.28H58.0998ZM65.2516 178.5C64.9582 178.5 64.7182 178.407 64.5316 178.22C64.3449 178.02 64.2516 177.773 64.2516 177.48V169C64.2516 168.707 64.3449 168.467 64.5316 168.28C64.7182 168.08 64.9582 167.98 65.2516 167.98C65.5316 167.98 65.7649 168.08 65.9516 168.28C66.1516 168.467 66.2516 168.707 66.2516 169V171.24L66.0516 170.38C66.1582 170.007 66.3182 169.66 66.5316 169.34C66.7582 169.02 67.0249 168.74 67.3316 168.5C67.6382 168.26 67.9782 168.073 68.3516 167.94C68.7382 167.807 69.1382 167.74 69.5516 167.74C69.8982 167.74 70.1982 167.833 70.4516 168.02C70.7049 168.207 70.8316 168.44 70.8316 168.72C70.8316 169.08 70.7382 169.347 70.5516 169.52C70.3649 169.68 70.1582 169.76 69.9316 169.76C69.7316 169.76 69.5382 169.72 69.3516 169.64C69.1649 169.547 68.9449 169.5 68.6916 169.5C68.4116 169.5 68.1249 169.573 67.8316 169.72C67.5382 169.867 67.2716 170.087 67.0316 170.38C66.7916 170.66 66.5982 170.993 66.4516 171.38C66.3182 171.767 66.2516 172.2 66.2516 172.68V177.48C66.2516 177.773 66.1516 178.02 65.9516 178.22C65.7649 178.407 65.5316 178.5 65.2516 178.5ZM82.2417 173.24C82.2417 174.307 82.0084 175.253 81.5417 176.08C81.0751 176.893 80.4417 177.533 79.6417 178C78.8417 178.467 77.9417 178.7 76.9417 178.7C75.9417 178.7 75.0417 178.467 74.2417 178C73.4417 177.533 72.8017 176.893 72.3217 176.08C71.8551 175.253 71.6217 174.307 71.6217 173.24C71.6217 172.16 71.8551 171.213 72.3217 170.4C72.8017 169.573 73.4417 168.927 74.2417 168.46C75.0417 167.98 75.9417 167.74 76.9417 167.74C77.9417 167.74 78.8417 167.98 79.6417 168.46C80.4417 168.927 81.0751 169.573 81.5417 170.4C82.0084 171.213 82.2417 172.16 82.2417 173.24ZM80.2417 173.24C80.2417 172.507 80.0951 171.873 79.8017 171.34C79.5084 170.793 79.1084 170.367 78.6017 170.06C78.1084 169.74 77.5551 169.58 76.9417 169.58C76.3284 169.58 75.7684 169.74 75.2617 170.06C74.7551 170.367 74.3551 170.793 74.0617 171.34C73.7684 171.873 73.6217 172.507 73.6217 173.24C73.6217 173.947 73.7684 174.573 74.0617 175.12C74.3551 175.667 74.7551 176.093 75.2617 176.4C75.7684 176.707 76.3284 176.86 76.9417 176.86C77.5551 176.86 78.1084 176.707 78.6017 176.4C79.1084 176.093 79.5084 175.667 79.8017 175.12C80.0951 174.573 80.2417 173.947 80.2417 173.24ZM86.7855 178.94C86.7855 179.66 86.6388 180.28 86.3455 180.8C86.0521 181.32 85.6655 181.72 85.1855 182C84.7055 182.28 84.1921 182.42 83.6455 182.42C83.3655 182.42 83.1388 182.327 82.9655 182.14C82.7921 181.967 82.7055 181.753 82.7055 181.5V181.32C82.7055 181.08 82.7921 180.887 82.9655 180.74C83.1255 180.593 83.3255 180.48 83.5655 180.4C83.8721 180.307 84.1121 180.167 84.2855 179.98C84.4721 179.807 84.5988 179.58 84.6655 179.3C84.7455 179.033 84.7855 178.74 84.7855 178.42V168.98C84.7855 168.7 84.8788 168.467 85.0655 168.28C85.2521 168.08 85.4921 167.98 85.7855 167.98C86.0788 167.98 86.3188 168.08 86.5055 168.28C86.6921 168.467 86.7855 168.7 86.7855 168.98V178.94ZM85.7455 166.58C85.3588 166.58 85.0788 166.513 84.9055 166.38C84.7321 166.233 84.6455 165.993 84.6455 165.66V165.34C84.6455 165.007 84.7388 164.773 84.9255 164.64C85.1121 164.507 85.3921 164.44 85.7655 164.44C86.1655 164.44 86.4521 164.513 86.6255 164.66C86.7988 164.793 86.8855 165.02 86.8855 165.34V165.66C86.8855 166.007 86.7921 166.247 86.6055 166.38C86.4321 166.513 86.1455 166.58 85.7455 166.58ZM94.8742 178.7C93.7676 178.7 92.8076 178.473 91.9942 178.02C91.1809 177.553 90.5476 176.92 90.0942 176.12C89.6542 175.307 89.4342 174.38 89.4342 173.34C89.4342 172.167 89.6676 171.167 90.1342 170.34C90.6142 169.5 91.2342 168.86 91.9942 168.42C92.7542 167.967 93.5609 167.74 94.4142 167.74C95.0676 167.74 95.6876 167.873 96.2742 168.14C96.8609 168.393 97.3809 168.753 97.8342 169.22C98.3009 169.673 98.6676 170.213 98.9342 170.84C99.2009 171.453 99.3409 172.127 99.3542 172.86C99.3409 173.127 99.2342 173.347 99.0342 173.52C98.8342 173.693 98.6009 173.78 98.3342 173.78H90.5542L90.0742 172.08H97.5942L97.2142 172.44V171.94C97.1876 171.473 97.0342 171.067 96.7542 170.72C96.4742 170.36 96.1276 170.087 95.7142 169.9C95.3009 169.7 94.8676 169.6 94.4142 169.6C94.0142 169.6 93.6276 169.667 93.2542 169.8C92.8942 169.92 92.5676 170.12 92.2742 170.4C91.9942 170.68 91.7676 171.053 91.5942 171.52C91.4342 171.973 91.3542 172.54 91.3542 173.22C91.3542 173.953 91.5076 174.593 91.8142 175.14C92.1209 175.687 92.5342 176.113 93.0542 176.42C93.5742 176.713 94.1476 176.86 94.7742 176.86C95.2676 176.86 95.6742 176.813 95.9942 176.72C96.3142 176.613 96.5809 176.487 96.7942 176.34C97.0076 176.193 97.1942 176.053 97.3542 175.92C97.5542 175.8 97.7542 175.74 97.9542 175.74C98.1942 175.74 98.3942 175.827 98.5542 176C98.7142 176.16 98.7942 176.353 98.7942 176.58C98.7942 176.873 98.6476 177.14 98.3542 177.38C97.9942 177.727 97.4942 178.033 96.8542 178.3C96.2276 178.567 95.5676 178.7 94.8742 178.7ZM106.275 167.74C106.995 167.74 107.635 167.82 108.195 167.98C108.755 168.127 109.188 168.34 109.495 168.62C109.815 168.887 109.975 169.2 109.975 169.56C109.975 169.787 109.908 170 109.775 170.2C109.642 170.387 109.442 170.48 109.175 170.48C108.988 170.48 108.828 170.447 108.695 170.38C108.575 170.313 108.462 170.233 108.355 170.14C108.248 170.047 108.115 169.953 107.955 169.86C107.808 169.78 107.588 169.713 107.295 169.66C107.015 169.607 106.762 169.58 106.535 169.58C105.828 169.58 105.215 169.74 104.695 170.06C104.188 170.38 103.788 170.813 103.495 171.36C103.215 171.907 103.075 172.527 103.075 173.22C103.075 173.913 103.215 174.533 103.495 175.08C103.788 175.627 104.182 176.06 104.675 176.38C105.182 176.7 105.768 176.86 106.435 176.86C106.835 176.86 107.162 176.833 107.415 176.78C107.668 176.713 107.888 176.633 108.075 176.54C108.275 176.42 108.442 176.3 108.575 176.18C108.722 176.047 108.922 175.98 109.175 175.98C109.468 175.98 109.688 176.073 109.835 176.26C109.995 176.433 110.075 176.653 110.075 176.92C110.075 177.213 109.895 177.5 109.535 177.78C109.188 178.047 108.722 178.267 108.135 178.44C107.548 178.613 106.902 178.7 106.195 178.7C105.155 178.7 104.248 178.46 103.475 177.98C102.715 177.5 102.122 176.847 101.695 176.02C101.282 175.193 101.075 174.26 101.075 173.22C101.075 172.167 101.295 171.233 101.735 170.42C102.175 169.593 102.788 168.94 103.575 168.46C104.362 167.98 105.262 167.74 106.275 167.74ZM111.846 168.1H116.546C116.813 168.1 117.033 168.193 117.206 168.38C117.393 168.553 117.486 168.773 117.486 169.04C117.486 169.293 117.393 169.507 117.206 169.68C117.033 169.853 116.813 169.94 116.546 169.94H111.846C111.579 169.94 111.353 169.853 111.166 169.68C110.993 169.493 110.906 169.273 110.906 169.02C110.906 168.753 110.993 168.533 111.166 168.36C111.353 168.187 111.579 168.1 111.846 168.1ZM113.946 165.5C114.239 165.5 114.479 165.6 114.666 165.8C114.853 165.987 114.946 166.227 114.946 166.52V175.8C114.946 176.04 114.986 176.233 115.066 176.38C115.146 176.527 115.253 176.627 115.386 176.68C115.533 176.733 115.679 176.76 115.826 176.76C115.973 176.76 116.099 176.733 116.206 176.68C116.326 176.627 116.466 176.6 116.626 176.6C116.786 176.6 116.933 176.673 117.066 176.82C117.199 176.967 117.266 177.167 117.266 177.42C117.266 177.74 117.093 178 116.746 178.2C116.399 178.4 116.026 178.5 115.626 178.5C115.399 178.5 115.133 178.48 114.826 178.44C114.519 178.4 114.219 178.3 113.926 178.14C113.646 177.98 113.413 177.727 113.226 177.38C113.039 177.02 112.946 176.52 112.946 175.88V166.52C112.946 166.227 113.039 165.987 113.226 165.8C113.426 165.6 113.666 165.5 113.946 165.5ZM119.471 176.86C119.351 176.673 119.298 176.46 119.311 176.22C119.325 175.967 119.465 175.753 119.731 175.58C119.918 175.46 120.111 175.413 120.311 175.44C120.525 175.453 120.725 175.553 120.911 175.74C121.285 176.153 121.698 176.48 122.151 176.72C122.618 176.96 123.178 177.08 123.831 177.08C124.098 177.067 124.371 177.027 124.651 176.96C124.931 176.88 125.171 176.747 125.371 176.56C125.571 176.36 125.671 176.073 125.671 175.7C125.671 175.367 125.565 175.1 125.351 174.9C125.138 174.7 124.858 174.54 124.511 174.42C124.165 174.287 123.791 174.167 123.391 174.06C122.965 173.94 122.531 173.807 122.091 173.66C121.665 173.513 121.278 173.327 120.931 173.1C120.585 172.86 120.298 172.553 120.071 172.18C119.858 171.807 119.751 171.347 119.751 170.8C119.751 170.173 119.925 169.633 120.271 169.18C120.631 168.727 121.091 168.373 121.651 168.12C122.225 167.867 122.845 167.74 123.511 167.74C123.898 167.74 124.305 167.793 124.731 167.9C125.158 167.993 125.571 168.147 125.971 168.36C126.371 168.573 126.718 168.853 127.011 169.2C127.145 169.373 127.218 169.58 127.231 169.82C127.258 170.06 127.151 170.273 126.911 170.46C126.751 170.593 126.558 170.653 126.331 170.64C126.105 170.627 125.918 170.553 125.771 170.42C125.518 170.1 125.191 169.853 124.791 169.68C124.391 169.493 123.938 169.4 123.431 169.4C123.178 169.4 122.911 169.44 122.631 169.52C122.365 169.587 122.138 169.713 121.951 169.9C121.765 170.087 121.671 170.36 121.671 170.72C121.671 171.053 121.778 171.32 121.991 171.52C122.218 171.72 122.511 171.887 122.871 172.02C123.231 172.153 123.625 172.273 124.051 172.38C124.465 172.487 124.871 172.613 125.271 172.76C125.685 172.907 126.051 173.1 126.371 173.34C126.705 173.567 126.971 173.867 127.171 174.24C127.385 174.6 127.491 175.06 127.491 175.62C127.491 176.273 127.298 176.833 126.911 177.3C126.538 177.753 126.058 178.1 125.471 178.34C124.898 178.58 124.291 178.7 123.651 178.7C122.891 178.7 122.131 178.567 121.371 178.3C120.625 178.02 119.991 177.54 119.471 176.86ZM141.329 164.5C142.302 164.5 143.162 164.687 143.909 165.06C144.655 165.42 145.275 165.927 145.769 166.58C146.275 167.22 146.655 167.967 146.909 168.82C147.162 169.66 147.289 170.553 147.289 171.5C147.289 172.793 147.062 173.973 146.609 175.04C146.155 176.093 145.489 176.933 144.609 177.56C143.729 178.187 142.635 178.5 141.329 178.5H136.449C136.169 178.5 135.929 178.407 135.729 178.22C135.529 178.02 135.429 177.773 135.429 177.48V165.52C135.429 165.227 135.529 164.987 135.729 164.8C135.929 164.6 136.169 164.5 136.449 164.5H141.329ZM141.129 176.58C142.075 176.58 142.842 176.347 143.429 175.88C144.015 175.413 144.442 174.8 144.709 174.04C144.989 173.267 145.129 172.42 145.129 171.5C145.129 170.82 145.049 170.18 144.889 169.58C144.742 168.967 144.502 168.427 144.169 167.96C143.849 167.48 143.435 167.107 142.929 166.84C142.435 166.56 141.835 166.42 141.129 166.42H137.349L137.529 166.24V176.78L137.409 176.58H141.129ZM154.581 178.7C153.475 178.7 152.515 178.473 151.701 178.02C150.888 177.553 150.255 176.92 149.801 176.12C149.361 175.307 149.141 174.38 149.141 173.34C149.141 172.167 149.375 171.167 149.841 170.34C150.321 169.5 150.941 168.86 151.701 168.42C152.461 167.967 153.268 167.74 154.121 167.74C154.775 167.74 155.395 167.873 155.981 168.14C156.568 168.393 157.088 168.753 157.541 169.22C158.008 169.673 158.375 170.213 158.641 170.84C158.908 171.453 159.048 172.127 159.061 172.86C159.048 173.127 158.941 173.347 158.741 173.52C158.541 173.693 158.308 173.78 158.041 173.78H150.261L149.781 172.08H157.301L156.921 172.44V171.94C156.895 171.473 156.741 171.067 156.461 170.72C156.181 170.36 155.835 170.087 155.421 169.9C155.008 169.7 154.575 169.6 154.121 169.6C153.721 169.6 153.335 169.667 152.961 169.8C152.601 169.92 152.275 170.12 151.981 170.4C151.701 170.68 151.475 171.053 151.301 171.52C151.141 171.973 151.061 172.54 151.061 173.22C151.061 173.953 151.215 174.593 151.521 175.14C151.828 175.687 152.241 176.113 152.761 176.42C153.281 176.713 153.855 176.86 154.481 176.86C154.975 176.86 155.381 176.813 155.701 176.72C156.021 176.613 156.288 176.487 156.501 176.34C156.715 176.193 156.901 176.053 157.061 175.92C157.261 175.8 157.461 175.74 157.661 175.74C157.901 175.74 158.101 175.827 158.261 176C158.421 176.16 158.501 176.353 158.501 176.58C158.501 176.873 158.355 177.14 158.061 177.38C157.701 177.727 157.201 178.033 156.561 178.3C155.935 178.567 155.275 178.7 154.581 178.7ZM163.482 177.48C163.482 177.773 163.382 178.02 163.182 178.22C162.995 178.407 162.762 178.5 162.482 178.5C162.202 178.5 161.962 178.407 161.762 178.22C161.575 178.02 161.482 177.773 161.482 177.48V164.72C161.482 164.427 161.582 164.187 161.782 164C161.982 163.8 162.222 163.7 162.502 163.7C162.795 163.7 163.029 163.8 163.202 164C163.389 164.187 163.482 164.427 163.482 164.72V177.48ZM168.339 177.48C168.339 177.773 168.245 178.02 168.059 178.22C167.872 178.407 167.632 178.5 167.339 178.5C167.059 178.5 166.819 178.407 166.619 178.22C166.432 178.02 166.339 177.773 166.339 177.48V168.92C166.339 168.627 166.432 168.387 166.619 168.2C166.819 168 167.059 167.9 167.339 167.9C167.632 167.9 167.872 168 168.059 168.2C168.245 168.387 168.339 168.627 168.339 168.92V177.48ZM167.319 166.58C166.932 166.58 166.652 166.513 166.479 166.38C166.305 166.233 166.219 165.993 166.219 165.66V165.34C166.219 165.007 166.312 164.773 166.499 164.64C166.685 164.507 166.965 164.44 167.339 164.44C167.739 164.44 168.025 164.513 168.199 164.66C168.372 164.793 168.459 165.02 168.459 165.34V165.66C168.459 166.007 168.365 166.247 168.179 166.38C168.005 166.513 167.719 166.58 167.319 166.58ZM171.269 167.88C171.469 167.88 171.656 167.933 171.829 168.04C172.016 168.147 172.149 168.307 172.229 168.52L175.369 175.78L174.989 175.96L178.169 168.54C178.356 168.1 178.656 167.887 179.069 167.9C179.336 167.9 179.556 167.987 179.729 168.16C179.916 168.32 180.009 168.533 180.009 168.8C180.009 168.88 179.996 168.967 179.969 169.06C179.942 169.14 179.909 169.22 179.869 169.3L176.069 177.86C175.896 178.26 175.609 178.473 175.209 178.5C175.009 178.527 174.809 178.487 174.609 178.38C174.422 178.26 174.276 178.087 174.169 177.86L170.389 169.3C170.362 169.247 170.336 169.18 170.309 169.1C170.282 169.007 170.269 168.9 170.269 168.78C170.269 168.58 170.356 168.38 170.529 168.18C170.716 167.98 170.962 167.88 171.269 167.88ZM186.847 178.7C185.74 178.7 184.78 178.473 183.967 178.02C183.154 177.553 182.52 176.92 182.067 176.12C181.627 175.307 181.407 174.38 181.407 173.34C181.407 172.167 181.64 171.167 182.107 170.34C182.587 169.5 183.207 168.86 183.967 168.42C184.727 167.967 185.534 167.74 186.387 167.74C187.04 167.74 187.66 167.873 188.247 168.14C188.834 168.393 189.354 168.753 189.807 169.22C190.274 169.673 190.64 170.213 190.907 170.84C191.174 171.453 191.314 172.127 191.327 172.86C191.314 173.127 191.207 173.347 191.007 173.52C190.807 173.693 190.574 173.78 190.307 173.78H182.527L182.047 172.08H189.567L189.187 172.44V171.94C189.16 171.473 189.007 171.067 188.727 170.72C188.447 170.36 188.1 170.087 187.687 169.9C187.274 169.7 186.84 169.6 186.387 169.6C185.987 169.6 185.6 169.667 185.227 169.8C184.867 169.92 184.54 170.12 184.247 170.4C183.967 170.68 183.74 171.053 183.567 171.52C183.407 171.973 183.327 172.54 183.327 173.22C183.327 173.953 183.48 174.593 183.787 175.14C184.094 175.687 184.507 176.113 185.027 176.42C185.547 176.713 186.12 176.86 186.747 176.86C187.24 176.86 187.647 176.813 187.967 176.72C188.287 176.613 188.554 176.487 188.767 176.34C188.98 176.193 189.167 176.053 189.327 175.92C189.527 175.8 189.727 175.74 189.927 175.74C190.167 175.74 190.367 175.827 190.527 176C190.687 176.16 190.767 176.353 190.767 176.58C190.767 176.873 190.62 177.14 190.327 177.38C189.967 177.727 189.467 178.033 188.827 178.3C188.2 178.567 187.54 178.7 186.847 178.7ZM194.588 178.5C194.294 178.5 194.054 178.407 193.868 178.22C193.681 178.02 193.588 177.773 193.588 177.48V169C193.588 168.707 193.681 168.467 193.868 168.28C194.054 168.08 194.294 167.98 194.588 167.98C194.868 167.98 195.101 168.08 195.288 168.28C195.488 168.467 195.588 168.707 195.588 169V171.24L195.388 170.38C195.494 170.007 195.654 169.66 195.868 169.34C196.094 169.02 196.361 168.74 196.668 168.5C196.974 168.26 197.314 168.073 197.688 167.94C198.074 167.807 198.474 167.74 198.888 167.74C199.234 167.74 199.534 167.833 199.788 168.02C200.041 168.207 200.168 168.44 200.168 168.72C200.168 169.08 200.074 169.347 199.888 169.52C199.701 169.68 199.494 169.76 199.268 169.76C199.068 169.76 198.874 169.72 198.688 169.64C198.501 169.547 198.281 169.5 198.028 169.5C197.748 169.5 197.461 169.573 197.168 169.72C196.874 169.867 196.608 170.087 196.368 170.38C196.128 170.66 195.934 170.993 195.788 171.38C195.654 171.767 195.588 172.2 195.588 172.68V177.48C195.588 177.773 195.488 178.02 195.288 178.22C195.101 178.407 194.868 178.5 194.588 178.5ZM206.398 178.7C205.291 178.7 204.331 178.473 203.518 178.02C202.704 177.553 202.071 176.92 201.618 176.12C201.178 175.307 200.958 174.38 200.958 173.34C200.958 172.167 201.191 171.167 201.658 170.34C202.138 169.5 202.758 168.86 203.518 168.42C204.278 167.967 205.084 167.74 205.938 167.74C206.591 167.74 207.211 167.873 207.798 168.14C208.384 168.393 208.904 168.753 209.358 169.22C209.824 169.673 210.191 170.213 210.458 170.84C210.724 171.453 210.864 172.127 210.878 172.86C210.864 173.127 210.758 173.347 210.558 173.52C210.358 173.693 210.124 173.78 209.858 173.78H202.078L201.598 172.08H209.118L208.738 172.44V171.94C208.711 171.473 208.558 171.067 208.278 170.72C207.998 170.36 207.651 170.087 207.238 169.9C206.824 169.7 206.391 169.6 205.938 169.6C205.538 169.6 205.151 169.667 204.778 169.8C204.418 169.92 204.091 170.12 203.798 170.4C203.518 170.68 203.291 171.053 203.118 171.52C202.958 171.973 202.878 172.54 202.878 173.22C202.878 173.953 203.031 174.593 203.338 175.14C203.644 175.687 204.058 176.113 204.578 176.42C205.098 176.713 205.671 176.86 206.298 176.86C206.791 176.86 207.198 176.813 207.518 176.72C207.838 176.613 208.104 176.487 208.318 176.34C208.531 176.193 208.718 176.053 208.878 175.92C209.078 175.8 209.278 175.74 209.478 175.74C209.718 175.74 209.918 175.827 210.078 176C210.238 176.16 210.318 176.353 210.318 176.58C210.318 176.873 210.171 177.14 209.878 177.38C209.518 177.727 209.018 178.033 208.378 178.3C207.751 178.567 207.091 178.7 206.398 178.7ZM221.758 163.7C222.052 163.7 222.292 163.793 222.478 163.98C222.665 164.167 222.758 164.413 222.758 164.72V177.48C222.758 177.773 222.665 178.02 222.478 178.22C222.292 178.407 222.052 178.5 221.758 178.5C221.478 178.5 221.238 178.407 221.038 178.22C220.852 178.02 220.758 177.773 220.758 177.48V176.04L221.178 176.06C221.178 176.3 221.078 176.573 220.878 176.88C220.692 177.173 220.432 177.46 220.098 177.74C219.765 178.02 219.372 178.253 218.918 178.44C218.465 178.613 217.978 178.7 217.458 178.7C216.538 178.7 215.712 178.467 214.978 178C214.245 177.52 213.665 176.873 213.238 176.06C212.812 175.233 212.598 174.287 212.598 173.22C212.598 172.153 212.812 171.213 213.238 170.4C213.665 169.573 214.238 168.927 214.958 168.46C215.692 167.98 216.505 167.74 217.398 167.74C217.958 167.74 218.478 167.833 218.958 168.02C219.452 168.207 219.878 168.447 220.238 168.74C220.598 169.033 220.878 169.347 221.078 169.68C221.278 170 221.378 170.307 221.378 170.6L220.758 170.66V164.72C220.758 164.427 220.852 164.187 221.038 164C221.238 163.8 221.478 163.7 221.758 163.7ZM217.678 176.86C218.318 176.86 218.872 176.7 219.338 176.38C219.818 176.06 220.192 175.627 220.458 175.08C220.725 174.533 220.858 173.913 220.858 173.22C220.858 172.527 220.725 171.907 220.458 171.36C220.192 170.813 219.818 170.38 219.338 170.06C218.858 169.74 218.305 169.58 217.678 169.58C217.065 169.58 216.518 169.74 216.038 170.06C215.572 170.38 215.198 170.813 214.918 171.36C214.652 171.907 214.518 172.527 214.518 173.22C214.518 173.913 214.652 174.533 214.918 175.08C215.198 175.627 215.572 176.06 216.038 176.38C216.518 176.7 217.065 176.86 217.678 176.86Z" fill="#0A0D12"/>
</svg>
