<svg width="275" height="275" viewBox="0 0 275 275" fill="none" xmlns="http://www.w3.org/2000/svg">
<rect x="0.5" y="0.5" width="274" height="274" rx="137" fill="#FAFAFA"/>
<rect x="0.5" y="0.5" width="274" height="274" rx="137" stroke="#DEDCDC"/>
<path d="M111.939 135.5C111.043 135.5 110.307 135.228 109.731 134.684C109.155 134.108 108.867 133.404 108.867 132.572V108.38L109.539 109.436L106.035 112.028C105.587 112.38 105.027 112.556 104.355 112.556C103.587 112.556 102.915 112.268 102.339 111.692C101.763 111.116 101.475 110.428 101.475 109.628C101.475 108.604 101.971 107.772 102.963 107.132L109.875 102.524C110.195 102.3 110.547 102.14 110.931 102.044C111.347 101.948 111.731 101.9 112.083 101.9C113.011 101.9 113.747 102.188 114.291 102.764C114.835 103.308 115.107 103.996 115.107 104.828V132.572C115.107 133.404 114.803 134.108 114.195 134.684C113.619 135.228 112.867 135.5 111.939 135.5ZM132.947 135.98C130.195 135.98 127.859 135.26 125.939 133.82C124.051 132.348 122.611 130.316 121.619 127.724C120.627 125.1 120.131 122.092 120.131 118.7C120.131 115.276 120.627 112.268 121.619 109.676C122.611 107.084 124.051 105.068 125.939 103.628C127.859 102.156 130.195 101.42 132.947 101.42C135.699 101.42 138.019 102.156 139.907 103.628C141.827 105.068 143.283 107.084 144.275 109.676C145.267 112.268 145.763 115.276 145.763 118.7C145.763 122.092 145.267 125.1 144.275 127.724C143.283 130.316 141.827 132.348 139.907 133.82C138.019 135.26 135.699 135.98 132.947 135.98ZM132.947 130.22C134.291 130.22 135.443 129.804 136.403 128.972C137.395 128.108 138.163 126.828 138.707 125.132C139.251 123.404 139.523 121.26 139.523 118.7C139.523 116.108 139.251 113.964 138.707 112.268C138.163 110.572 137.395 109.308 136.403 108.476C135.443 107.612 134.291 107.18 132.947 107.18C131.635 107.18 130.483 107.612 129.491 108.476C128.499 109.308 127.731 110.572 127.187 112.268C126.643 113.964 126.371 116.108 126.371 118.7C126.371 121.26 126.643 123.404 127.187 125.132C127.731 126.828 128.499 128.108 129.491 128.972C130.483 129.804 131.635 130.22 132.947 130.22ZM151.343 122.252C150.575 122.252 149.935 121.996 149.423 121.484C148.911 120.972 148.655 120.332 148.655 119.564C148.655 118.796 148.911 118.172 149.423 117.692C149.935 117.212 150.575 116.972 151.343 116.972H170.879C171.647 116.972 172.287 117.228 172.799 117.74C173.311 118.22 173.567 118.844 173.567 119.612C173.567 120.38 173.311 121.02 172.799 121.532C172.287 122.012 171.647 122.252 170.879 122.252H151.343ZM161.039 131.612C160.143 131.612 159.391 131.324 158.783 130.748C158.207 130.172 157.919 129.436 157.919 128.54V109.82C157.919 108.924 158.223 108.188 158.831 107.612C159.439 107.036 160.191 106.748 161.087 106.748C162.015 106.748 162.751 107.036 163.295 107.612C163.871 108.188 164.159 108.924 164.159 109.82V128.54C164.159 129.436 163.871 130.172 163.295 130.748C162.719 131.324 161.967 131.612 161.039 131.612Z" fill="#FF623E"/>
<path d="M39.7063 177.48C39.693 177.773 39.5797 178.02 39.3663 178.22C39.1663 178.407 38.9263 178.5 38.6463 178.5C38.3397 178.5 38.0863 178.407 37.8863 178.22C37.6997 178.02 37.6063 177.773 37.6063 177.48V165.52C37.6063 165.227 37.7063 164.987 37.9063 164.8C38.1063 164.6 38.3663 164.5 38.6863 164.5C38.953 164.5 39.1863 164.6 39.3863 164.8C39.5997 164.987 39.7063 165.227 39.7063 165.52V177.48ZM48.1384 167.74C49.085 167.74 49.8184 167.94 50.3384 168.34C50.8584 168.727 51.2184 169.253 51.4184 169.92C51.6317 170.573 51.7384 171.307 51.7384 172.12V177.48C51.7384 177.773 51.6384 178.02 51.4384 178.22C51.2517 178.407 51.0184 178.5 50.7384 178.5C50.445 178.5 50.205 178.407 50.0184 178.22C49.8317 178.02 49.7384 177.773 49.7384 177.48V172.14C49.7384 171.66 49.6717 171.233 49.5384 170.86C49.405 170.473 49.1717 170.167 48.8384 169.94C48.5184 169.7 48.065 169.58 47.4784 169.58C46.9317 169.58 46.4517 169.7 46.0384 169.94C45.625 170.167 45.2984 170.473 45.0584 170.86C44.8317 171.233 44.7184 171.66 44.7184 172.14V177.48C44.7184 177.773 44.6184 178.02 44.4184 178.22C44.2317 178.407 43.9984 178.5 43.7184 178.5C43.425 178.5 43.185 178.407 42.9984 178.22C42.8117 178.02 42.7184 177.773 42.7184 177.48V169C42.7184 168.707 42.8117 168.467 42.9984 168.28C43.185 168.08 43.425 167.98 43.7184 167.98C43.9984 167.98 44.2317 168.08 44.4184 168.28C44.6184 168.467 44.7184 168.707 44.7184 169V170.12L44.3584 170.32C44.4517 170.027 44.6117 169.733 44.8384 169.44C45.0784 169.133 45.365 168.853 45.6984 168.6C46.0317 168.333 46.405 168.127 46.8184 167.98C47.2317 167.82 47.6717 167.74 48.1384 167.74ZM63.1352 163.7C63.4286 163.7 63.6686 163.793 63.8552 163.98C64.0419 164.167 64.1352 164.413 64.1352 164.72V177.48C64.1352 177.773 64.0419 178.02 63.8552 178.22C63.6686 178.407 63.4286 178.5 63.1352 178.5C62.8552 178.5 62.6152 178.407 62.4152 178.22C62.2286 178.02 62.1352 177.773 62.1352 177.48V176.04L62.5552 176.06C62.5552 176.3 62.4552 176.573 62.2552 176.88C62.0686 177.173 61.8086 177.46 61.4752 177.74C61.1419 178.02 60.7486 178.253 60.2952 178.44C59.8419 178.613 59.3552 178.7 58.8352 178.7C57.9152 178.7 57.0886 178.467 56.3552 178C55.6219 177.52 55.0419 176.873 54.6152 176.06C54.1886 175.233 53.9752 174.287 53.9752 173.22C53.9752 172.153 54.1886 171.213 54.6152 170.4C55.0419 169.573 55.6152 168.927 56.3352 168.46C57.0686 167.98 57.8819 167.74 58.7752 167.74C59.3352 167.74 59.8552 167.833 60.3352 168.02C60.8286 168.207 61.2552 168.447 61.6152 168.74C61.9752 169.033 62.2552 169.347 62.4552 169.68C62.6552 170 62.7552 170.307 62.7552 170.6L62.1352 170.66V164.72C62.1352 164.427 62.2286 164.187 62.4152 164C62.6152 163.8 62.8552 163.7 63.1352 163.7ZM59.0552 176.86C59.6952 176.86 60.2486 176.7 60.7152 176.38C61.1952 176.06 61.5686 175.627 61.8352 175.08C62.1019 174.533 62.2352 173.913 62.2352 173.22C62.2352 172.527 62.1019 171.907 61.8352 171.36C61.5686 170.813 61.1952 170.38 60.7152 170.06C60.2352 169.74 59.6819 169.58 59.0552 169.58C58.4419 169.58 57.8952 169.74 57.4152 170.06C56.9486 170.38 56.5752 170.813 56.2952 171.36C56.0286 171.907 55.8952 172.527 55.8952 173.22C55.8952 173.913 56.0286 174.533 56.2952 175.08C56.5752 175.627 56.9486 176.06 57.4152 176.38C57.8952 176.7 58.4419 176.86 59.0552 176.86ZM75.0896 167.98C75.3696 167.98 75.6029 168.08 75.7896 168.28C75.9896 168.467 76.0896 168.707 76.0896 169V174.26C76.0896 175.647 75.7029 176.733 74.9296 177.52C74.1563 178.293 73.0629 178.68 71.6496 178.68C70.2496 178.68 69.1629 178.293 68.3896 177.52C67.6296 176.733 67.2496 175.647 67.2496 174.26V169C67.2496 168.707 67.3429 168.467 67.5296 168.28C67.7163 168.08 67.9563 167.98 68.2496 167.98C68.5296 167.98 68.7629 168.08 68.9496 168.28C69.1496 168.467 69.2496 168.707 69.2496 169V174.26C69.2496 175.127 69.4496 175.773 69.8496 176.2C70.2629 176.627 70.8629 176.84 71.6496 176.84C72.4496 176.84 73.0563 176.627 73.4696 176.2C73.8829 175.773 74.0896 175.127 74.0896 174.26V169C74.0896 168.707 74.1829 168.467 74.3696 168.28C74.5563 168.08 74.7963 167.98 75.0896 167.98ZM78.2507 176.86C78.1307 176.673 78.0774 176.46 78.0907 176.22C78.104 175.967 78.244 175.753 78.5107 175.58C78.6974 175.46 78.8907 175.413 79.0907 175.44C79.304 175.453 79.504 175.553 79.6907 175.74C80.064 176.153 80.4774 176.48 80.9307 176.72C81.3974 176.96 81.9574 177.08 82.6107 177.08C82.8774 177.067 83.1507 177.027 83.4307 176.96C83.7107 176.88 83.9507 176.747 84.1507 176.56C84.3507 176.36 84.4507 176.073 84.4507 175.7C84.4507 175.367 84.344 175.1 84.1307 174.9C83.9174 174.7 83.6374 174.54 83.2907 174.42C82.944 174.287 82.5707 174.167 82.1707 174.06C81.744 173.94 81.3107 173.807 80.8707 173.66C80.444 173.513 80.0574 173.327 79.7107 173.1C79.364 172.86 79.0774 172.553 78.8507 172.18C78.6374 171.807 78.5307 171.347 78.5307 170.8C78.5307 170.173 78.704 169.633 79.0507 169.18C79.4107 168.727 79.8707 168.373 80.4307 168.12C81.004 167.867 81.624 167.74 82.2907 167.74C82.6774 167.74 83.084 167.793 83.5107 167.9C83.9374 167.993 84.3507 168.147 84.7507 168.36C85.1507 168.573 85.4974 168.853 85.7907 169.2C85.924 169.373 85.9974 169.58 86.0107 169.82C86.0374 170.06 85.9307 170.273 85.6907 170.46C85.5307 170.593 85.3374 170.653 85.1107 170.64C84.884 170.627 84.6974 170.553 84.5507 170.42C84.2974 170.1 83.9707 169.853 83.5707 169.68C83.1707 169.493 82.7174 169.4 82.2107 169.4C81.9574 169.4 81.6907 169.44 81.4107 169.52C81.144 169.587 80.9174 169.713 80.7307 169.9C80.544 170.087 80.4507 170.36 80.4507 170.72C80.4507 171.053 80.5574 171.32 80.7707 171.52C80.9974 171.72 81.2907 171.887 81.6507 172.02C82.0107 172.153 82.404 172.273 82.8307 172.38C83.244 172.487 83.6507 172.613 84.0507 172.76C84.464 172.907 84.8307 173.1 85.1507 173.34C85.484 173.567 85.7507 173.867 85.9507 174.24C86.164 174.6 86.2707 175.06 86.2707 175.62C86.2707 176.273 86.0774 176.833 85.6907 177.3C85.3174 177.753 84.8374 178.1 84.2507 178.34C83.6774 178.58 83.0707 178.7 82.4307 178.7C81.6707 178.7 80.9107 178.567 80.1507 178.3C79.404 178.02 78.7707 177.54 78.2507 176.86ZM88.2815 168.1H92.9815C93.2482 168.1 93.4682 168.193 93.6415 168.38C93.8282 168.553 93.9215 168.773 93.9215 169.04C93.9215 169.293 93.8282 169.507 93.6415 169.68C93.4682 169.853 93.2482 169.94 92.9815 169.94H88.2815C88.0148 169.94 87.7882 169.853 87.6015 169.68C87.4282 169.493 87.3415 169.273 87.3415 169.02C87.3415 168.753 87.4282 168.533 87.6015 168.36C87.7882 168.187 88.0148 168.1 88.2815 168.1ZM90.3815 165.5C90.6748 165.5 90.9148 165.6 91.1015 165.8C91.2882 165.987 91.3815 166.227 91.3815 166.52V175.8C91.3815 176.04 91.4215 176.233 91.5015 176.38C91.5815 176.527 91.6882 176.627 91.8215 176.68C91.9682 176.733 92.1148 176.76 92.2615 176.76C92.4082 176.76 92.5348 176.733 92.6415 176.68C92.7615 176.627 92.9015 176.6 93.0615 176.6C93.2215 176.6 93.3682 176.673 93.5015 176.82C93.6348 176.967 93.7015 177.167 93.7015 177.42C93.7015 177.74 93.5282 178 93.1815 178.2C92.8348 178.4 92.4615 178.5 92.0615 178.5C91.8348 178.5 91.5682 178.48 91.2615 178.44C90.9548 178.4 90.6548 178.3 90.3615 178.14C90.0815 177.98 89.8482 177.727 89.6615 177.38C89.4748 177.02 89.3815 176.52 89.3815 175.88V166.52C89.3815 166.227 89.4748 165.987 89.6615 165.8C89.8615 165.6 90.1015 165.5 90.3815 165.5ZM97.1363 178.5C96.843 178.5 96.603 178.407 96.4163 178.22C96.2297 178.02 96.1363 177.773 96.1363 177.48V169C96.1363 168.707 96.2297 168.467 96.4163 168.28C96.603 168.08 96.843 167.98 97.1363 167.98C97.4163 167.98 97.6497 168.08 97.8363 168.28C98.0363 168.467 98.1363 168.707 98.1363 169V171.24L97.9363 170.38C98.043 170.007 98.203 169.66 98.4163 169.34C98.643 169.02 98.9097 168.74 99.2163 168.5C99.523 168.26 99.863 168.073 100.236 167.94C100.623 167.807 101.023 167.74 101.436 167.74C101.783 167.74 102.083 167.833 102.336 168.02C102.59 168.207 102.716 168.44 102.716 168.72C102.716 169.08 102.623 169.347 102.436 169.52C102.25 169.68 102.043 169.76 101.816 169.76C101.616 169.76 101.423 169.72 101.236 169.64C101.05 169.547 100.83 169.5 100.576 169.5C100.296 169.5 100.01 169.573 99.7163 169.72C99.423 169.867 99.1563 170.087 98.9163 170.38C98.6763 170.66 98.483 170.993 98.3363 171.38C98.203 171.767 98.1363 172.2 98.1363 172.68V177.48C98.1363 177.773 98.0363 178.02 97.8363 178.22C97.6497 178.407 97.4163 178.5 97.1363 178.5ZM112.316 167.9C112.609 167.9 112.849 168 113.036 168.2C113.222 168.387 113.316 168.627 113.316 168.92V177.52C113.316 178.693 113.089 179.647 112.636 180.38C112.196 181.113 111.596 181.647 110.836 181.98C110.089 182.327 109.242 182.5 108.296 182.5C107.816 182.5 107.336 182.453 106.856 182.36C106.376 182.28 105.982 182.16 105.676 182C105.356 181.853 105.129 181.673 104.996 181.46C104.862 181.247 104.842 181.013 104.936 180.76C105.029 180.44 105.189 180.22 105.416 180.1C105.642 179.993 105.876 179.987 106.116 180.08C106.342 180.173 106.642 180.293 107.016 180.44C107.389 180.587 107.816 180.66 108.296 180.66C108.949 180.66 109.502 180.553 109.956 180.34C110.409 180.127 110.749 179.793 110.976 179.34C111.216 178.887 111.336 178.3 111.336 177.58V176.2L111.656 176.68C111.442 177.12 111.162 177.487 110.816 177.78C110.469 178.073 110.056 178.3 109.576 178.46C109.109 178.62 108.589 178.7 108.016 178.7C107.282 178.7 106.649 178.54 106.116 178.22C105.596 177.887 105.196 177.433 104.916 176.86C104.636 176.273 104.496 175.607 104.496 174.86V168.92C104.496 168.627 104.589 168.387 104.776 168.2C104.962 168 105.202 167.9 105.496 167.9C105.776 167.9 106.009 168 106.196 168.2C106.396 168.387 106.496 168.627 106.496 168.92V174.32C106.496 175.2 106.689 175.847 107.076 176.26C107.462 176.66 108.036 176.86 108.796 176.86C109.302 176.86 109.742 176.753 110.116 176.54C110.489 176.327 110.782 176.033 110.996 175.66C111.209 175.273 111.316 174.827 111.316 174.32V168.92C111.316 168.627 111.409 168.387 111.596 168.2C111.796 168 112.036 167.9 112.316 167.9ZM126.903 167.1L122.403 177.9C122.323 178.113 122.203 178.28 122.043 178.4C121.883 178.52 121.703 178.58 121.503 178.58C121.21 178.58 120.99 178.5 120.843 178.34C120.697 178.167 120.617 177.953 120.603 177.7C120.603 177.607 120.623 177.5 120.663 177.38L125.743 165.1C125.837 164.873 125.97 164.7 126.143 164.58C126.33 164.46 126.53 164.407 126.743 164.42C126.943 164.42 127.13 164.48 127.303 164.6C127.477 164.72 127.603 164.887 127.683 165.1L132.703 177.2C132.757 177.333 132.783 177.467 132.783 177.6C132.783 177.893 132.683 178.133 132.483 178.32C132.297 178.493 132.083 178.58 131.843 178.58C131.643 178.58 131.457 178.52 131.283 178.4C131.123 178.267 131.003 178.1 130.923 177.9L126.383 167.16L126.903 167.1ZM123.203 175.06L124.103 173.14H129.763L130.103 175.06H123.203ZM146.599 167.88C146.853 167.88 147.073 167.98 147.259 168.18C147.459 168.367 147.559 168.613 147.559 168.92C147.559 168.987 147.553 169.053 147.539 169.12C147.526 169.187 147.506 169.247 147.479 169.3L144.419 177.86C144.339 178.087 144.199 178.26 143.999 178.38C143.799 178.487 143.593 178.527 143.379 178.5C142.993 178.473 142.706 178.26 142.519 177.86L140.259 171.86L140.719 171.9L138.639 177.86C138.453 178.26 138.166 178.473 137.779 178.5C137.579 178.527 137.373 178.487 137.159 178.38C136.959 178.26 136.819 178.087 136.739 177.86L133.659 169.3C133.606 169.18 133.579 169.053 133.579 168.92C133.579 168.64 133.666 168.4 133.839 168.2C134.026 167.987 134.273 167.88 134.579 167.88C134.793 167.88 134.979 167.933 135.139 168.04C135.313 168.147 135.433 168.307 135.499 168.52L138.059 175.74L137.599 175.7L139.679 170.24C139.853 169.827 140.159 169.62 140.599 169.62C140.839 169.62 141.026 169.673 141.159 169.78C141.293 169.887 141.399 170.04 141.479 170.24L143.599 175.72L143.059 175.78L145.639 168.52C145.773 168.093 146.093 167.88 146.599 167.88ZM158.291 167.82C158.585 167.82 158.825 167.92 159.011 168.12C159.198 168.307 159.291 168.547 159.291 168.84V177.48C159.291 177.773 159.198 178.02 159.011 178.22C158.825 178.407 158.585 178.5 158.291 178.5C158.011 178.5 157.771 178.407 157.571 178.22C157.385 178.02 157.291 177.773 157.291 177.48V176.04L157.711 176.1C157.711 176.34 157.611 176.607 157.411 176.9C157.225 177.193 156.965 177.48 156.631 177.76C156.298 178.027 155.905 178.253 155.451 178.44C154.998 178.613 154.511 178.7 153.991 178.7C153.071 178.7 152.245 178.467 151.511 178C150.778 177.52 150.198 176.867 149.771 176.04C149.345 175.213 149.131 174.273 149.131 173.22C149.131 172.14 149.345 171.193 149.771 170.38C150.198 169.553 150.771 168.907 151.491 168.44C152.225 167.973 153.038 167.74 153.931 167.74C154.505 167.74 155.031 167.833 155.511 168.02C156.005 168.207 156.431 168.447 156.791 168.74C157.151 169.033 157.425 169.347 157.611 169.68C157.811 170 157.911 170.307 157.911 170.6L157.291 170.66V168.84C157.291 168.56 157.385 168.32 157.571 168.12C157.771 167.92 158.011 167.82 158.291 167.82ZM154.211 176.86C154.838 176.86 155.391 176.7 155.871 176.38C156.351 176.06 156.725 175.627 156.991 175.08C157.258 174.52 157.391 173.9 157.391 173.22C157.391 172.527 157.258 171.907 156.991 171.36C156.725 170.813 156.351 170.38 155.871 170.06C155.391 169.74 154.838 169.58 154.211 169.58C153.598 169.58 153.051 169.74 152.571 170.06C152.105 170.38 151.731 170.813 151.451 171.36C151.185 171.907 151.051 172.527 151.051 173.22C151.051 173.9 151.185 174.52 151.451 175.08C151.731 175.627 152.105 176.06 152.571 176.38C153.051 176.7 153.598 176.86 154.211 176.86ZM163.093 178.5C162.8 178.5 162.56 178.407 162.373 178.22C162.187 178.02 162.093 177.773 162.093 177.48V169C162.093 168.707 162.187 168.467 162.373 168.28C162.56 168.08 162.8 167.98 163.093 167.98C163.373 167.98 163.607 168.08 163.793 168.28C163.993 168.467 164.093 168.707 164.093 169V171.24L163.893 170.38C164 170.007 164.16 169.66 164.373 169.34C164.6 169.02 164.867 168.74 165.173 168.5C165.48 168.26 165.82 168.073 166.193 167.94C166.58 167.807 166.98 167.74 167.393 167.74C167.74 167.74 168.04 167.833 168.293 168.02C168.547 168.207 168.673 168.44 168.673 168.72C168.673 169.08 168.58 169.347 168.393 169.52C168.207 169.68 168 169.76 167.773 169.76C167.573 169.76 167.38 169.72 167.193 169.64C167.007 169.547 166.787 169.5 166.533 169.5C166.253 169.5 165.967 169.573 165.673 169.72C165.38 169.867 165.113 170.087 164.873 170.38C164.633 170.66 164.44 170.993 164.293 171.38C164.16 171.767 164.093 172.2 164.093 172.68V177.48C164.093 177.773 163.993 178.02 163.793 178.22C163.607 178.407 163.373 178.5 163.093 178.5ZM178.624 163.7C178.917 163.7 179.157 163.793 179.344 163.98C179.53 164.167 179.624 164.413 179.624 164.72V177.48C179.624 177.773 179.53 178.02 179.344 178.22C179.157 178.407 178.917 178.5 178.624 178.5C178.344 178.5 178.104 178.407 177.904 178.22C177.717 178.02 177.624 177.773 177.624 177.48V176.04L178.044 176.06C178.044 176.3 177.944 176.573 177.744 176.88C177.557 177.173 177.297 177.46 176.964 177.74C176.63 178.02 176.237 178.253 175.784 178.44C175.33 178.613 174.844 178.7 174.324 178.7C173.404 178.7 172.577 178.467 171.844 178C171.11 177.52 170.53 176.873 170.104 176.06C169.677 175.233 169.464 174.287 169.464 173.22C169.464 172.153 169.677 171.213 170.104 170.4C170.53 169.573 171.104 168.927 171.824 168.46C172.557 167.98 173.37 167.74 174.264 167.74C174.824 167.74 175.344 167.833 175.824 168.02C176.317 168.207 176.744 168.447 177.104 168.74C177.464 169.033 177.744 169.347 177.944 169.68C178.144 170 178.244 170.307 178.244 170.6L177.624 170.66V164.72C177.624 164.427 177.717 164.187 177.904 164C178.104 163.8 178.344 163.7 178.624 163.7ZM174.544 176.86C175.184 176.86 175.737 176.7 176.204 176.38C176.684 176.06 177.057 175.627 177.324 175.08C177.59 174.533 177.724 173.913 177.724 173.22C177.724 172.527 177.59 171.907 177.324 171.36C177.057 170.813 176.684 170.38 176.204 170.06C175.724 169.74 175.17 169.58 174.544 169.58C173.93 169.58 173.384 169.74 172.904 170.06C172.437 170.38 172.064 170.813 171.784 171.36C171.517 171.907 171.384 172.527 171.384 173.22C171.384 173.913 171.517 174.533 171.784 175.08C172.064 175.627 172.437 176.06 172.904 176.38C173.384 176.7 173.93 176.86 174.544 176.86ZM181.805 176.86C181.685 176.673 181.632 176.46 181.645 176.22C181.659 175.967 181.799 175.753 182.065 175.58C182.252 175.46 182.445 175.413 182.645 175.44C182.859 175.453 183.059 175.553 183.245 175.74C183.619 176.153 184.032 176.48 184.485 176.72C184.952 176.96 185.512 177.08 186.165 177.08C186.432 177.067 186.705 177.027 186.985 176.96C187.265 176.88 187.505 176.747 187.705 176.56C187.905 176.36 188.005 176.073 188.005 175.7C188.005 175.367 187.899 175.1 187.685 174.9C187.472 174.7 187.192 174.54 186.845 174.42C186.499 174.287 186.125 174.167 185.725 174.06C185.299 173.94 184.865 173.807 184.425 173.66C183.999 173.513 183.612 173.327 183.265 173.1C182.919 172.86 182.632 172.553 182.405 172.18C182.192 171.807 182.085 171.347 182.085 170.8C182.085 170.173 182.259 169.633 182.605 169.18C182.965 168.727 183.425 168.373 183.985 168.12C184.559 167.867 185.179 167.74 185.845 167.74C186.232 167.74 186.639 167.793 187.065 167.9C187.492 167.993 187.905 168.147 188.305 168.36C188.705 168.573 189.052 168.853 189.345 169.2C189.479 169.373 189.552 169.58 189.565 169.82C189.592 170.06 189.485 170.273 189.245 170.46C189.085 170.593 188.892 170.653 188.665 170.64C188.439 170.627 188.252 170.553 188.105 170.42C187.852 170.1 187.525 169.853 187.125 169.68C186.725 169.493 186.272 169.4 185.765 169.4C185.512 169.4 185.245 169.44 184.965 169.52C184.699 169.587 184.472 169.713 184.285 169.9C184.099 170.087 184.005 170.36 184.005 170.72C184.005 171.053 184.112 171.32 184.325 171.52C184.552 171.72 184.845 171.887 185.205 172.02C185.565 172.153 185.959 172.273 186.385 172.38C186.799 172.487 187.205 172.613 187.605 172.76C188.019 172.907 188.385 173.1 188.705 173.34C189.039 173.567 189.305 173.867 189.505 174.24C189.719 174.6 189.825 175.06 189.825 175.62C189.825 176.273 189.632 176.833 189.245 177.3C188.872 177.753 188.392 178.1 187.805 178.34C187.232 178.58 186.625 178.7 185.985 178.7C185.225 178.7 184.465 178.567 183.705 178.3C182.959 178.02 182.325 177.54 181.805 176.86ZM213.663 164.44C213.929 164.44 214.176 164.54 214.403 164.74C214.629 164.927 214.743 165.187 214.743 165.52C214.743 165.613 214.723 165.727 214.683 165.86L210.583 177.86C210.516 178.06 210.396 178.213 210.223 178.32C210.049 178.427 209.869 178.487 209.683 178.5C209.496 178.5 209.309 178.447 209.123 178.34C208.936 178.233 208.796 178.073 208.703 177.86L205.543 170.46L205.723 170.54L202.603 177.86C202.496 178.073 202.349 178.233 202.163 178.34C201.989 178.447 201.803 178.5 201.603 178.5C201.429 178.487 201.256 178.427 201.083 178.32C200.909 178.213 200.789 178.06 200.723 177.86L196.623 165.86C196.583 165.727 196.563 165.613 196.563 165.52C196.563 165.187 196.683 164.927 196.923 164.74C197.163 164.54 197.409 164.44 197.663 164.44C197.876 164.44 198.069 164.5 198.243 164.62C198.429 164.727 198.556 164.887 198.623 165.1L202.083 175.42H201.723L204.763 167.98C204.856 167.78 204.983 167.62 205.143 167.5C205.316 167.38 205.509 167.327 205.723 167.34C205.936 167.327 206.123 167.38 206.283 167.5C206.456 167.62 206.583 167.78 206.663 167.98L209.543 175.2L209.243 175.36L212.683 165.1C212.749 164.887 212.876 164.727 213.063 164.62C213.249 164.5 213.449 164.44 213.663 164.44ZM226.353 173.24C226.353 174.307 226.12 175.253 225.653 176.08C225.186 176.893 224.553 177.533 223.753 178C222.953 178.467 222.053 178.7 221.053 178.7C220.053 178.7 219.153 178.467 218.353 178C217.553 177.533 216.913 176.893 216.433 176.08C215.966 175.253 215.733 174.307 215.733 173.24C215.733 172.16 215.966 171.213 216.433 170.4C216.913 169.573 217.553 168.927 218.353 168.46C219.153 167.98 220.053 167.74 221.053 167.74C222.053 167.74 222.953 167.98 223.753 168.46C224.553 168.927 225.186 169.573 225.653 170.4C226.12 171.213 226.353 172.16 226.353 173.24ZM224.353 173.24C224.353 172.507 224.206 171.873 223.913 171.34C223.62 170.793 223.22 170.367 222.713 170.06C222.22 169.74 221.666 169.58 221.053 169.58C220.44 169.58 219.88 169.74 219.373 170.06C218.866 170.367 218.466 170.793 218.173 171.34C217.88 171.873 217.733 172.507 217.733 173.24C217.733 173.947 217.88 174.573 218.173 175.12C218.466 175.667 218.866 176.093 219.373 176.4C219.88 176.707 220.44 176.86 221.053 176.86C221.666 176.86 222.22 176.707 222.713 176.4C223.22 176.093 223.62 175.667 223.913 175.12C224.206 174.573 224.353 173.947 224.353 173.24ZM234.037 167.74C234.983 167.74 235.717 167.94 236.237 168.34C236.757 168.727 237.117 169.253 237.317 169.92C237.53 170.573 237.637 171.307 237.637 172.12V177.48C237.637 177.773 237.537 178.02 237.337 178.22C237.15 178.407 236.917 178.5 236.637 178.5C236.343 178.5 236.103 178.407 235.917 178.22C235.73 178.02 235.637 177.773 235.637 177.48V172.14C235.637 171.66 235.57 171.233 235.437 170.86C235.303 170.473 235.07 170.167 234.737 169.94C234.417 169.7 233.963 169.58 233.377 169.58C232.83 169.58 232.35 169.7 231.937 169.94C231.523 170.167 231.197 170.473 230.957 170.86C230.73 171.233 230.617 171.66 230.617 172.14V177.48C230.617 177.773 230.517 178.02 230.317 178.22C230.13 178.407 229.897 178.5 229.617 178.5C229.323 178.5 229.083 178.407 228.897 178.22C228.71 178.02 228.617 177.773 228.617 177.48V169C228.617 168.707 228.71 168.467 228.897 168.28C229.083 168.08 229.323 167.98 229.617 167.98C229.897 167.98 230.13 168.08 230.317 168.28C230.517 168.467 230.617 168.707 230.617 169V170.12L230.257 170.32C230.35 170.027 230.51 169.733 230.737 169.44C230.977 169.133 231.263 168.853 231.597 168.6C231.93 168.333 232.303 168.127 232.717 167.98C233.13 167.82 233.57 167.74 234.037 167.74Z" fill="#0A0D12"/>
</svg>
